<?xml version="1.0" standalone="no"?>
<!DOCTYPE svg PUBLIC "-//W3C//DTD SVG 20010904//EN"
 "http://www.w3.org/TR/2001/REC-SVG-20010904/DTD/svg10.dtd">
<svg version="1.0" xmlns="http://www.w3.org/2000/svg"
 width="1500.000000pt" height="1500.000000pt" viewBox="0 0 1500.000000 1500.000000"
 preserveAspectRatio="xMidYMid meet">
<metadata>
Created by potrace 1.14, written by Peter Selinger 2001-2017
</metadata>
<g transform="translate(0.000000,1500.000000) scale(0.100000,-0.100000)"
fill="#000000" stroke="none">
<path d="M1420 14989 c-104 -11 -298 -58 -401 -98 -217 -84 -380 -190 -550
-360 -229 -230 -363 -477 -436 -805 l-27 -121 -3 -1382 c-3 -1317 -3 -1382 14
-1386 17 -4 17 -5 0 -6 -12 -1 -17 -7 -15 -18 2 -10 11 -16 19 -14 8 2 50 7
93 12 152 18 301 111 409 256 37 48 67 92 67 98 0 5 -15 -12 -33 -38 -17 -26
-36 -47 -40 -47 -4 0 5 17 21 38 28 35 43 71 73 170 7 23 14 40 16 38 4 -4
-17 -88 -32 -131 -5 -16 -5 -17 4 -5 6 8 17 38 26 65 30 101 83 148 182 162
44 6 81 29 206 128 41 33 98 76 126 95 29 19 71 49 94 67 69 52 154 75 312 84
77 5 159 13 181 17 70 15 130 67 163 142 11 25 35 59 53 76 37 36 165 103 218
115 19 5 73 17 120 28 47 11 104 20 127 20 23 1 66 6 95 13 29 6 59 11 67 9 9
-2 12 4 8 19 -3 14 -1 20 6 17 18 -6 20 -52 3 -67 -17 -14 -21 -50 -7 -66 5
-5 12 -20 16 -34 l8 -25 -22 20 -22 19 6 -29 c3 -17 8 -40 11 -53 10 -52 138
-59 236 -13 100 47 153 61 230 61 39 0 85 4 102 9 17 6 63 17 101 26 81 20 95
24 235 65 133 40 185 63 234 104 32 28 38 40 41 77 1 24 0 30 -2 12 -2 -17
-12 -37 -21 -44 -14 -11 -15 -11 -4 1 32 37 -7 142 -62 165 -45 19 -104 19
-149 0 -23 -10 -69 -15 -127 -15 -83 0 -93 2 -115 25 -39 39 -34 86 21 180
132 227 137 243 79 294 -20 17 -53 40 -75 51 -21 11 -42 25 -46 32 -6 10 -4
10 7 2 25 -20 49 -24 43 -9 -5 12 16 14 133 10 76 -2 147 -7 157 -11 13 -5 17
-4 13 3 -4 6 -35 14 -69 17 -35 4 -74 14 -88 22 l-25 14 25 -5 c14 -3 52 -9
85 -14 33 -5 92 -17 130 -26 71 -17 124 -29 205 -45 25 -5 65 -13 90 -19 62
-14 124 -13 139 2 10 10 11 9 5 -6 -3 -9 -17 -20 -31 -23 -13 -4 -22 -8 -19
-11 2 -3 42 6 88 20 46 13 112 32 148 42 36 9 79 22 95 27 29 9 64 15 220 37
71 10 158 36 211 64 39 20 119 91 146 130 17 25 9 20 -33 -19 -30 -28 -66 -56
-79 -63 l-25 -12 25 18 c92 66 140 139 140 213 0 35 -8 50 -63 113 -79 91
-102 128 -159 252 -72 159 -73 267 -3 430 18 40 26 85 32 172 4 65 2 75 -23
113 -16 23 -37 46 -49 50 -24 9 -87 -14 -164 -59 -29 -17 -80 -43 -114 -57
-34 -14 -66 -30 -72 -34 -5 -4 -43 -11 -83 -14 -98 -10 -100 -2 -28 138 68
134 70 157 18 217 -22 24 -45 62 -52 83 -7 22 -33 62 -58 88 -42 45 -48 48
-96 48 -28 0 -76 9 -106 21 -117 44 -174 50 -220 24 -30 -17 -44 -19 -34 -4 4
8 1 8 -12 1 -20 -11 -70 -63 -94 -97 -8 -11 9 5 37 35 28 30 53 53 56 50 8 -8
-177 -200 -192 -200 -7 0 -9 5 -5 13 4 7 3 9 -2 4 -5 -5 -9 -14 -9 -20 0 -7
-10 -12 -22 -11 -12 0 -20 -3 -17 -7 7 -12 -35 -31 -52 -25 -8 3 -12 2 -9 -4
7 -12 -33 -33 -51 -26 -8 3 -13 0 -11 -7 1 -7 -8 -12 -20 -11 -12 0 -21 -4
-20 -9 1 -5 -4 -12 -12 -15 -10 -3 -11 0 -5 9 7 12 5 12 -9 0 -9 -7 -15 -17
-12 -21 2 -4 -7 -18 -21 -31 -40 -38 -47 -56 -34 -95 16 -48 2 -78 -63 -140
l-52 -49 40 45 40 45 -42 -39 c-23 -22 -40 -43 -38 -47 18 -28 -217 -148 -330
-168 -22 -4 -50 -13 -62 -19 -12 -7 -34 -12 -50 -12 -16 0 -53 -9 -83 -20 -65
-24 -72 -24 -46 -5 11 8 15 15 9 15 -13 0 -35 -25 -28 -32 3 -2 -11 -20 -30
-38 -19 -19 -35 -30 -35 -26 0 5 -6 3 -14 -4 -8 -6 -13 -17 -10 -24 6 -15 -39
-82 -54 -79 -5 1 -16 -5 -24 -15 -12 -15 -11 -16 5 -3 31 25 18 -5 -24 -53
-42 -47 -115 -100 -182 -132 -29 -14 -42 -16 -55 -8 -28 18 -25 41 16 127 56
115 130 222 201 292 34 33 61 67 61 76 0 26 -37 67 -96 104 -73 47 -120 125
-165 274 -16 54 -46 91 -105 132 -53 36 -55 56 -11 106 41 46 77 105 77 125 0
8 10 23 22 34 l21 19 -18 -28 c-25 -39 -15 -40 18 -1 l28 33 -308 -1 c-169 0
-346 -4 -393 -9z m3293 -1866 c-7 -2 -19 -2 -25 0 -7 3 -2 5 12 5 14 0 19 -2
13 -5z m-57 -18 c-20 -15 -36 -19 -36 -10 0 5 38 23 50 24 3 0 -4 -6 -14 -14z
m-73 -12 c-7 -2 -19 -2 -25 0 -7 3 -2 5 12 5 14 0 19 -2 13 -5z m-93 -13 c-8
-5 -33 -9 -55 -8 l-40 1 45 7 c25 4 50 8 55 8 6 1 3 -3 -5 -8z m-1292 -262
c-30 -45 -63 -105 -75 -133 -20 -46 -43 -71 -43 -46 0 35 153 281 167 268 2
-3 -20 -43 -49 -89z m395 -375 c9 -8 -32 -53 -47 -53 -6 0 -24 -7 -41 -16 -16
-8 -44 -14 -62 -12 -17 1 -36 -2 -40 -6 -5 -5 -1 -6 7 -2 8 4 6 0 -4 -8 -22
-18 -76 -22 -76 -6 0 6 13 13 29 16 29 6 52 34 29 34 -6 0 -8 3 -5 6 4 4 13 1
22 -6 8 -7 15 -8 15 -3 0 5 15 7 33 5 21 -2 39 2 48 11 15 14 69 46 80 47 3 0
9 -3 12 -7z m-287 -125 c-9 -5 -24 -7 -34 -5 -14 3 -12 6 8 14 29 12 50 5 26
-9z m-746 -82 c0 -7 -102 -29 -175 -37 -95 -11 -164 -24 -199 -38 -16 -6 -31
-9 -34 -7 -14 15 71 35 253 61 55 8 107 17 115 19 22 6 40 7 40 2z m-420 -80
c0 -2 -9 -6 -20 -9 -11 -3 -18 -1 -14 4 5 9 34 13 34 5z m927 -82 c-3 -3 -12
-4 -19 -1 -8 3 -5 6 6 6 11 1 17 -2 13 -5z m-453 -67 c7 -6 6 -7 -4 -4 -8 2
-16 14 -17 28 -1 19 -1 20 4 4 3 -11 10 -24 17 -28z m-738 -59 c-17 -41 -98
-118 -123 -118 -12 1 -7 6 12 14 38 17 88 71 105 114 7 18 14 31 16 29 3 -2
-2 -20 -10 -39z m-178 -125 c-10 -2 -26 -2 -35 0 -10 3 -2 5 17 5 19 0 27 -2
18 -5z m-88 -9 c-58 -8 -150 -8 -150 -1 0 4 39 6 88 6 48 -1 76 -3 62 -5z
m-190 -14 c-40 -10 -96 -25 -125 -34 -11 -4 -6 0 10 7 49 24 88 35 120 35 29
0 29 0 -5 -8z m-180 -63 c0 -2 -10 -12 -22 -23 l-23 -19 19 23 c18 21 26 27
26 19z m-70 -51 c0 -2 -8 -10 -17 -17 -16 -13 -17 -12 -4 4 13 16 21 21 21 13z
m-80 -59 c0 -2 -15 -13 -32 -26 l-33 -22 28 25 c26 24 37 31 37 23z m-70 -51
c0 -2 -8 -10 -17 -17 -16 -13 -17 -12 -4 4 13 16 21 21 21 13z m-105 -86 c-36
-40 -82 -61 -122 -57 l-38 4 42 1 c31 2 53 11 85 36 50 40 58 44 33 16z m-414
-437 c-5 -10 -22 -29 -37 -43 -23 -21 -22 -18 7 17 37 46 45 53 30 26z m-151
-127 c0 -2 -8 -10 -17 -17 -16 -13 -17 -12 -4 4 13 16 21 21 21 13z m-75 -46
c-3 -5 -12 -10 -18 -10 -7 0 -6 4 3 10 19 12 23 12 15 0z m-97 -37 c-10 -2
-28 -2 -40 0 -13 2 -5 4 17 4 22 1 32 -1 23 -4z"/>
<path d="M2185 14990 c-36 -16 -61 -44 -101 -110 -21 -36 -48 -76 -60 -89 -25
-26 -22 -47 6 -56 38 -12 102 -104 137 -197 50 -134 50 -133 133 -199 25 -20
60 -50 79 -68 18 -17 37 -31 42 -31 12 0 11 -34 -2 -63 -6 -13 -35 -45 -66
-72 -56 -50 -143 -155 -143 -174 0 -6 -5 -11 -10 -11 -6 0 -13 -8 -17 -17 -3
-10 -22 -42 -41 -71 -19 -28 -32 -55 -28 -59 12 -13 76 30 137 91 32 33 59 63
59 67 0 26 107 160 168 211 l32 27 -27 26 c-19 17 -24 28 -16 33 6 4 15 21 19
37 8 32 26 55 43 55 6 0 11 6 11 14 0 8 7 16 15 20 8 3 15 12 15 21 0 11 8 15
28 13 19 -2 27 2 27 12 0 8 15 28 33 44 17 16 32 37 32 48 0 11 9 22 20 25 35
9 21 24 -17 18 -30 -4 -34 -3 -18 5 17 9 15 9 -10 4 -16 -3 -32 -9 -35 -14 -3
-5 -16 -10 -30 -13 -14 -2 -19 -2 -12 0 6 3 12 15 12 29 0 20 5 24 30 24 20 0
30 5 30 15 0 8 7 15 15 15 8 0 15 5 15 10 0 6 7 10 16 10 9 0 18 9 21 20 3 11
12 20 19 20 8 0 14 7 14 15 0 10 10 15 30 15 23 0 30 4 30 20 0 15 7 20 26 20
14 0 32 6 39 13 36 31 46 37 65 37 11 0 20 -4 20 -10 0 -5 7 -10 15 -10 8 0
15 7 15 15 0 10 10 15 29 15 16 0 31 6 35 15 4 11 21 15 66 15 l60 0 0 -30 c0
-29 -2 -30 -45 -30 -43 0 -45 -1 -45 -30 0 -29 24 -43 32 -19 2 6 13 13 23 14
38 5 65 17 65 31 0 8 7 14 15 14 8 0 15 -2 15 -5 0 -10 -45 -75 -52 -75 -11 0
-48 -33 -48 -42 0 -15 17 -8 44 17 15 14 30 25 35 25 4 0 16 8 27 18 23 21
161 92 178 92 24 0 121 78 174 139 l53 61 -728 -1 c-401 0 -737 -4 -748 -9z
m1095 -185 c0 -9 9 -15 22 -15 12 0 19 -3 15 -6 -11 -11 -67 7 -67 22 0 8 7
14 15 14 8 0 15 -7 15 -15z"/>
<path d="M3927 14989 c7 -7 15 -10 18 -7 3 3 -2 9 -12 12 -14 6 -15 5 -6 -5z"/>
<path d="M4130 14993 c46 -17 127 -111 170 -197 14 -27 37 -60 51 -75 15 -15
30 -37 34 -49 6 -22 -11 -122 -24 -132 -12 -10 -61 -90 -61 -100 0 -15 47 -12
64 5 8 8 24 15 35 15 11 0 22 4 26 9 3 6 31 22 63 37 31 15 81 42 110 62 33
22 70 36 98 40 42 4 47 2 78 -32 19 -20 38 -36 42 -36 5 0 9 18 9 40 0 38 -2
40 -30 40 -21 0 -26 3 -16 9 10 7 6 11 -17 16 -17 3 -36 13 -43 21 -6 8 -17
14 -23 14 -7 0 -32 19 -56 42 -25 23 -40 39 -35 37 6 -2 30 -14 55 -26 86 -42
123 -53 169 -53 54 0 58 3 93 57 l27 41 101 4 101 3 55 57 c44 46 54 62 54 91
0 20 3 42 6 51 4 11 1 16 -10 16 -13 0 -16 -11 -16 -51 0 -48 -3 -55 -44 -95
l-43 -44 -69 2 -69 2 68 3 c64 4 70 6 107 43 36 36 40 45 40 90 l0 50 -557 -1
c-307 0 -551 -3 -543 -6z m440 -133 c6 -11 8 -20 6 -20 -3 0 -10 9 -16 20 -6
11 -8 20 -6 20 3 0 10 -9 16 -20z m119 -104 c39 -21 132 -46 165 -46 18 0 28
9 39 38 13 29 16 32 16 14 1 -22 -39 -72 -57 -72 -6 0 -41 10 -78 21 -68 21
-159 74 -186 107 -7 9 5 3 27 -14 22 -17 55 -39 74 -48z m-212 -212 c-3 -3
-12 -4 -19 -1 -8 3 -5 6 6 6 11 1 17 -2 13 -5z"/>
<path d="M5298 14964 c4 -36 -7 -65 -59 -153 -24 -41 -17 -52 15 -22 20 19 24
20 29 7 8 -20 27 -21 27 -1 0 8 5 15 10 15 6 0 20 16 31 35 12 20 29 35 40 35
14 0 19 7 19 25 0 23 3 25 50 25 28 0 50 5 50 10 0 6 -19 10 -42 11 -53 1 -83
12 -83 30 0 10 -15 15 -46 17 l-45 3 4 -37z"/>
<path d="M5576 14991 c-3 -5 1 -11 9 -15 8 -3 15 -12 15 -21 0 -15 10 -19 43
-16 9 1 17 -4 17 -13 0 -9 7 -16 15 -16 8 0 15 -7 15 -15 0 -10 10 -15 30 -15
20 0 30 -5 30 -15 0 -10 10 -15 30 -15 27 0 30 -3 30 -30 0 -27 3 -30 30 -30
19 0 30 -5 30 -14 0 -14 29 -26 68 -26 17 0 24 -7 29 -30 5 -28 9 -30 49 -30
32 0 44 -4 44 -14 0 -10 14 -16 43 -18 42 -3 42 -3 45 -45 3 -40 5 -43 33 -43
19 0 29 -5 29 -15 0 -11 12 -15 45 -15 29 0 46 -5 46 -12 8 -64 6 -78 -7 -78
-12 0 -12 -3 -2 -14 14 -15 32 -11 23 5 -4 5 -1 9 4 9 13 0 14 -20 3 -35 -9
-13 -42 -15 -42 -3 0 6 -6 5 -15 -2 -8 -7 -23 -9 -32 -6 -17 6 -17 5 0 -8 9
-7 17 -22 18 -32 1 -14 3 -13 9 6 l8 25 1 -27 c1 -30 12 -41 34 -33 8 4 12 15
10 28 -4 19 2 24 41 33 37 8 46 8 46 -3 0 -7 7 -13 15 -13 8 0 15 -4 15 -9 0
-5 12 -12 27 -16 19 -4 23 -9 14 -15 -8 -4 -11 -12 -7 -18 6 -11 -15 -22 -44
-22 -12 0 -17 -8 -17 -27 0 -15 -6 -29 -12 -31 -14 -5 -15 -42 -1 -42 6 0 10
-6 10 -14 0 -9 9 -13 24 -12 15 2 27 -3 31 -12 3 -10 0 -12 -10 -8 -8 3 -15 1
-15 -4 0 -6 9 -10 20 -10 11 0 20 -5 20 -12 0 -6 3 -9 6 -5 4 3 13 0 20 -8 16
-16 19 -29 4 -20 -5 3 -10 1 -10 -5 0 -7 -6 -10 -12 -8 -13 5 -43 -19 -43 -33
0 -4 -3 -11 -7 -15 -5 -4 -8 -2 -8 5 0 7 -5 9 -11 6 -6 -4 -8 -9 -5 -12 2 -3
1 -16 -5 -30 -8 -22 -7 -24 14 -21 12 2 24 12 27 22 3 11 14 20 24 22 10 1 24
11 32 21 13 17 14 17 7 -1 -4 -13 -3 -17 5 -12 8 4 8 -3 2 -25 -5 -18 -6 -37
-3 -43 4 -6 0 -5 -9 2 -13 10 -17 10 -22 -3 -3 -8 -12 -15 -20 -15 -7 0 -17
-7 -20 -16 -5 -13 -2 -15 11 -9 10 4 29 9 43 11 l25 4 -24 -8 c-13 -4 -25 -14
-27 -22 -1 -8 -5 -23 -9 -32 -5 -13 -2 -18 11 -19 11 0 14 -3 7 -6 -21 -8 -15
-20 14 -28 20 -5 23 -9 14 -15 -8 -4 -12 -17 -9 -28 4 -15 0 -22 -18 -26 -13
-4 -24 -11 -24 -16 0 -12 -65 -80 -77 -80 -9 0 -33 -34 -45 -62 -5 -13 -3 -18
10 -18 15 0 15 -2 2 -10 -13 -8 -13 -10 2 -10 9 0 20 -5 23 -11 11 -16 12 -69
2 -69 -4 0 -5 -6 -1 -12 6 -10 4 -10 -8 0 -14 11 -16 10 -11 -7 3 -12 8 -21
12 -21 4 0 7 -10 8 -22 0 -13 -1 -17 -4 -10 -3 6 -9 12 -14 12 -6 0 -7 -5 -4
-10 3 -6 -1 -13 -10 -16 -13 -6 -14 -8 -3 -15 11 -7 11 -9 -1 -9 -8 0 -11 -6
-6 -17 4 -13 3 -15 -5 -7 -12 12 -16 39 -9 63 2 7 -2 16 -9 18 -7 3 -10 -1 -6
-10 3 -8 1 -18 -5 -22 -6 -3 -11 2 -12 12 0 13 -3 12 -10 -7 -7 -18 -12 -21
-18 -11 -6 9 -10 7 -14 -9 -3 -12 -10 -20 -14 -17 -5 3 -10 -4 -10 -15 -2 -20
-1 -20 12 -2 13 17 14 17 15 2 0 -9 -4 -20 -10 -23 -5 -3 -10 -11 -10 -16 0
-6 4 -7 10 -4 19 12 26 -73 7 -91 -4 -4 -4 -18 -1 -30 4 -15 2 -24 -6 -24 -6
0 -8 6 -4 13 5 9 3 9 -7 -1 -11 -10 -11 -14 -1 -21 10 -6 10 -10 -3 -21 -12
-10 -13 -15 -3 -28 11 -14 10 -14 -7 -5 -16 9 -23 7 -41 -12 -13 -14 -20 -33
-19 -49 2 -14 -2 -26 -8 -26 -5 0 -7 -3 -4 -6 3 -4 2 -15 -3 -24 -8 -15 -6
-17 10 -13 15 4 20 0 20 -14 0 -11 -6 -20 -12 -20 -7 0 -21 -4 -30 -8 -14 -5
-16 -2 -13 15 2 13 1 19 -3 16 -4 -4 -7 -13 -7 -19 -1 -7 -7 -10 -15 -9 -8 2
-12 0 -8 -4 4 -4 2 -14 -4 -23 -9 -11 -6 -10 9 2 21 18 22 18 34 -5 12 -22 11
-22 -6 -8 -17 14 -18 13 -13 -6 4 -16 1 -21 -11 -20 -9 0 -19 4 -22 8 -3 5
-13 2 -23 -5 -14 -10 -15 -18 -7 -40 10 -26 -2 -39 -13 -14 -3 6 -3 2 0 -10 4
-17 1 -23 -10 -23 -9 0 -16 -4 -16 -9 0 -6 9 -8 21 -6 17 3 19 2 9 -10 -7 -8
-16 -12 -21 -10 -4 3 -6 -4 -4 -16 2 -12 2 -19 -2 -15 -8 7 -43 -23 -43 -37 0
-6 8 -3 18 6 29 26 35 20 12 -12 -14 -21 -17 -32 -9 -37 8 -4 9 -3 5 4 -5 8
-1 10 10 5 16 -6 16 -7 0 -18 -17 -13 -23 -30 -7 -20 6 3 9 -4 8 -15 -2 -27
-11 -25 -25 5 -9 20 -15 23 -34 16 -13 -5 -21 -15 -19 -23 2 -7 4 -19 4 -25 0
-12 11 -17 30 -14 4 1 3 -8 -3 -19 -12 -23 -22 -27 -14 -6 4 10 -4 13 -31 12
-25 -1 -34 -5 -30 -14 3 -8 5 -20 5 -28 0 -9 4 -13 9 -10 5 4 7 -4 4 -15 -6
-20 -7 -20 -18 -6 -7 9 -15 14 -18 10 -4 -3 -2 -12 5 -20 6 -7 8 -16 4 -20 -3
-3 -6 -1 -6 5 0 16 -27 15 -33 0 -2 -7 -1 -22 4 -33 4 -11 8 -14 8 -6 1 8 3
12 6 9 7 -7 -16 -58 -25 -58 -4 0 -6 12 -5 28 1 15 0 19 -2 10 -2 -10 -13 -18
-23 -18 -13 0 -17 -5 -14 -15 4 -8 9 -13 13 -11 4 3 7 -4 7 -15 0 -18 -9 -23
-29 -20 -5 1 -6 -3 -2 -9 3 -6 -3 -10 -15 -10 -22 0 -25 28 -5 42 6 5 5 8 -3
8 -13 0 -33 -40 -25 -52 2 -5 -1 -8 -6 -8 -18 0 -12 -17 7 -22 10 -3 19 -12
19 -21 0 -8 -6 -13 -13 -10 -8 3 -19 -6 -25 -21 -12 -26 -29 -35 -29 -15 0 6
5 20 11 32 11 21 11 21 -14 -2 -21 -19 -24 -27 -16 -43 14 -27 3 -35 -19 -14
-19 17 -52 13 -52 -6 0 -6 6 -8 14 -5 10 4 12 0 9 -14 -6 -22 -14 -24 -30 -8
-9 9 -11 5 -9 -15 3 -23 0 -26 -23 -24 -22 3 -26 -1 -27 -22 0 -14 -6 -24 -12
-22 -7 1 -12 -2 -12 -8 0 -5 -7 -7 -16 -3 -9 3 -14 13 -11 24 3 12 0 16 -9 12
-7 -3 -13 -8 -12 -11 2 -20 -3 -32 -11 -27 -5 3 -13 0 -17 -6 -4 -8 -3 -9 4
-5 7 4 12 2 12 -4 0 -17 -60 -69 -84 -72 -12 -2 -20 -10 -18 -18 2 -8 0 -12
-4 -7 -16 16 -10 43 9 43 11 -1 21 6 22 16 2 11 -2 15 -11 11 -8 -3 -11 -10
-7 -16 4 -7 0 -8 -11 -4 -10 4 -20 7 -22 7 -3 0 -2 5 2 12 4 7 3 8 -4 4 -6 -4
-8 -14 -5 -23 5 -12 3 -14 -8 -8 -11 6 -12 5 -1 -6 16 -18 15 -29 -4 -29 -8 0
-13 -4 -10 -8 3 -5 -1 -9 -9 -9 -14 0 -19 10 -16 30 0 4 -3 7 -9 7 -5 0 -10
-12 -10 -27 0 -16 -5 -35 -11 -43 -8 -12 -9 -9 -5 12 3 15 2 30 -4 33 -5 3
-10 -3 -10 -14 0 -14 -9 -23 -27 -27 -16 -4 -34 -13 -40 -22 -7 -9 -13 -12
-13 -6 0 19 17 35 38 37 42 3 20 31 -26 34 -25 1 -32 -2 -28 -12 3 -9 0 -12
-10 -8 -7 3 -14 10 -14 17 0 6 -9 -2 -19 -18 -11 -17 -18 -33 -16 -36 2 -4 -2
-7 -9 -7 -8 0 -12 9 -10 21 3 12 2 15 -2 8 -3 -6 -10 -9 -16 -6 -6 4 -8 -2 -3
-17 7 -22 7 -22 -9 -6 -10 9 -21 15 -25 12 -5 -2 -8 5 -7 17 1 25 -39 45 -47
23 -4 -9 2 -12 18 -10 14 1 22 -2 19 -7 -3 -5 -12 -7 -20 -4 -8 3 -14 2 -14
-3 0 -4 -6 -8 -14 -8 -8 0 -12 6 -8 15 3 10 1 13 -6 8 -16 -10 -15 7 1 23 10
11 8 11 -10 2 -13 -6 -23 -19 -24 -29 0 -10 -3 -12 -6 -4 -6 15 -33 16 -33 1
0 -7 -10 -9 -25 -5 -14 4 -25 2 -25 -4 0 -5 -5 -10 -11 -10 -5 0 -7 5 -4 10 7
11 -8 14 -19 3 -3 -4 4 -13 16 -20 18 -9 19 -12 6 -13 -9 0 -19 4 -22 9 -3 5
-16 7 -29 4 -12 -3 -19 -3 -15 2 8 9 -15 35 -31 35 -6 0 -11 -7 -11 -15 0 -16
-2 -17 -50 -19 -16 0 -30 2 -30 7 0 4 4 7 10 7 5 0 7 7 3 16 -5 13 -10 9 -24
-17 -10 -19 -18 -31 -19 -27 0 4 -12 3 -26 -2 -33 -13 -49 -4 -32 18 10 12 10
14 1 8 -8 -4 -13 -2 -13 6 0 10 -2 10 -9 -1 -6 -9 -11 -10 -15 -2 -4 6 -12 11
-17 11 -6 0 -7 -6 -3 -12 5 -9 2 -8 -9 1 -10 8 -27 15 -40 16 -37 4 -38 5 -32
15 3 6 1 10 -6 10 -6 0 -9 -8 -7 -18 4 -16 1 -18 -21 -15 -14 2 -38 5 -53 5
-16 1 -28 7 -28 15 0 7 -6 10 -15 7 -8 -4 -12 -10 -9 -15 8 -13 -18 -7 -34 9
-16 14 -46 16 -37 2 3 -5 -3 -10 -14 -10 -11 0 -23 5 -27 11 -3 6 -15 9 -25 6
-11 -3 -17 -2 -15 1 2 4 -2 13 -10 20 -9 8 -14 9 -14 2 0 -6 -5 -8 -10 -5 -6
4 -8 11 -5 16 4 5 1 9 -4 9 -6 0 -11 -8 -11 -17 0 -13 -2 -15 -8 -5 -6 9 -16
10 -34 3 -15 -5 -30 -6 -39 0 -19 12 -32 11 -24 -1 3 -5 -1 -10 -9 -10 -10 0
-13 6 -9 17 4 11 3 14 -5 9 -7 -4 -12 -2 -12 5 0 8 -4 8 -15 -1 -13 -10 -13
-15 -3 -21 7 -4 9 -11 5 -16 -5 -4 -11 -3 -15 3 -8 12 -22 12 -41 0 -10 -6
-12 -5 -7 2 4 7 1 12 -9 12 -9 0 -14 -3 -12 -7 3 -5 -5 -8 -18 -8 -13 0 -21 3
-18 8 4 7 -12 11 -31 8 -4 -1 -15 4 -24 11 -14 12 -14 11 -2 -9 8 -12 18 -19
22 -17 4 3 8 0 8 -7 0 -7 -8 -9 -22 -5 -53 16 -91 18 -100 4 -7 -10 -8 -8 -4
5 4 12 2 17 -6 14 -7 -2 -12 -9 -11 -14 1 -6 -16 -8 -40 -5 -23 2 -63 5 -89 6
-25 0 -44 5 -41 10 4 5 1 6 -5 2 -7 -4 -12 -2 -12 5 0 8 -3 9 -13 0 -8 -6 -17
-8 -20 -4 -4 3 -7 1 -7 -6 0 -8 7 -10 19 -6 12 4 21 0 25 -11 5 -14 4 -15 -9
-4 -11 9 -15 9 -15 1 0 -25 -36 8 -38 35 -3 36 -12 45 -12 11 0 -14 -4 -29
-10 -32 -6 -3 -7 1 -4 9 3 9 1 16 -4 16 -6 0 -9 -11 -6 -24 5 -31 -32 -44 -41
-15 -4 10 -11 19 -16 19 -6 0 -8 -4 -5 -9 4 -5 -4 -7 -16 -3 -11 3 -19 1 -16
-4 9 -13 -57 -10 -74 3 -9 8 -18 9 -28 1 -12 -8 -11 -8 5 -3 15 5 17 3 8 -5
-8 -9 -17 -9 -29 -2 -13 7 -24 6 -40 -5 -12 -8 -28 -13 -36 -12 -7 1 -20 1
-28 0 -13 -1 -13 -3 0 -12 12 -9 11 -9 -5 -4 -42 16 -68 18 -61 6 4 -6 3 -11
-2 -11 -5 0 -12 10 -16 23 -5 17 -8 19 -15 8 -6 -9 -11 -10 -15 -2 -13 21 -27
12 -16 -10 7 -11 9 -23 6 -27 -3 -3 -6 0 -6 8 0 10 -3 10 -15 0 -8 -7 -12 -17
-8 -24 3 -6 0 -5 -8 2 -12 11 -12 14 1 22 11 8 6 10 -17 8 -18 -1 -33 -8 -33
-14 0 -9 -8 -10 -30 -4 -20 6 -30 5 -30 -2 0 -7 -13 4 -30 22 -16 18 -30 29
-30 24 0 -5 -5 -2 -10 6 -8 13 -10 12 -10 -4 0 -12 5 -16 15 -12 20 7 19 -4
-2 -20 -15 -10 -16 -15 -5 -25 10 -11 12 -10 12 3 0 30 19 29 35 -1 13 -26 13
-30 1 -25 -8 3 -17 13 -19 22 -3 12 -5 10 -6 -6 -1 -19 -4 -21 -20 -13 -10 6
-22 7 -26 3 -5 -4 -5 -2 -2 5 4 6 4 18 1 27 -6 15 -8 15 -19 -1 -8 -10 -17
-15 -21 -10 -4 4 -18 0 -31 -8 -16 -11 -29 -13 -41 -6 -12 7 -22 5 -36 -7 -11
-9 -16 -12 -13 -5 8 13 -11 12 -33 -2 -18 -11 -51 -12 -68 -1 -8 5 -10 2 -6
-8 4 -11 0 -16 -10 -16 -9 0 -16 -5 -16 -11 0 -6 -7 -9 -15 -5 -8 3 -15 1 -15
-5 0 -6 -4 -7 -10 -4 -5 3 -10 0 -10 -7 0 -11 -2 -11 -9 0 -4 7 -14 14 -22 15
-8 2 -20 6 -28 11 -10 7 -12 4 -6 -13 5 -16 3 -20 -9 -15 -9 3 -16 2 -16 -4 0
-5 -11 -9 -25 -9 -14 0 -32 -9 -40 -19 -14 -19 -14 -18 -15 0 0 20 0 20 -15 0
-14 -18 -15 -18 -6 7 7 19 6 26 -4 26 -8 0 -12 -4 -9 -9 3 -4 -1 -8 -9 -8 -19
0 -42 -28 -32 -38 4 -4 10 -1 12 6 5 13 23 7 23 -9 0 -5 -20 -8 -44 -6 -25 2
-43 0 -41 -3 2 -3 -6 -12 -18 -20 -20 -12 -21 -11 -9 2 10 13 9 16 -9 21 -14
4 -19 2 -16 -7 3 -7 -1 -13 -9 -13 -9 0 -13 6 -9 15 4 12 3 13 -9 3 -8 -7 -21
-10 -28 -6 -7 4 -4 -1 7 -10 19 -16 19 -16 -7 -10 -21 5 -29 2 -38 -14 -6 -12
-15 -19 -20 -16 -5 3 -22 -2 -37 -12 -15 -10 -28 -17 -30 -15 -8 6 -23 1 -38
-14 -9 -9 -19 -13 -23 -9 -4 4 3 15 16 25 13 11 18 21 12 25 -6 4 -33 -16 -60
-44 -29 -30 -52 -46 -56 -40 -5 8 -8 8 -13 0 -4 -6 -18 -12 -31 -14 -13 -2
-26 -10 -28 -18 -6 -16 -22 -29 -37 -29 -5 0 -4 4 2 8 10 6 10 12 -3 28 -8 10
-13 14 -10 7 9 -17 -4 -43 -21 -43 -8 0 -11 -5 -7 -11 4 -8 0 -9 -15 -4 -15 4
-21 2 -21 -9 0 -10 6 -13 18 -10 13 5 14 4 3 -4 -16 -12 -44 -4 -35 9 13 22
-23 2 -38 -21 -10 -14 -18 -19 -18 -13 0 16 -50 -5 -50 -21 0 -6 -5 -4 -10 4
-9 13 -10 13 -11 0 -1 -8 -1 -18 0 -22 0 -5 -5 -8 -13 -8 -7 0 -19 -6 -26 -14
-6 -8 -18 -12 -26 -9 -8 3 -21 0 -28 -6 -11 -9 -15 -9 -18 0 -3 9 -12 7 -31
-6 -15 -9 -24 -21 -21 -26 3 -5 -2 -9 -11 -9 -8 0 -23 -9 -32 -19 -9 -11 -21
-17 -27 -14 -6 4 -4 -2 4 -12 9 -11 10 -16 3 -11 -9 5 -13 0 -14 -16 0 -13 -3
-17 -6 -10 -6 14 -33 16 -33 2 0 -5 -5 -10 -11 -10 -5 0 -7 5 -3 12 4 7 3 8
-4 4 -7 -4 -12 -16 -12 -27 0 -12 -7 -19 -20 -19 -13 0 -20 -7 -20 -19 0 -25
-17 -36 -34 -22 -7 6 -16 7 -20 3 -4 -4 -13 -7 -18 -7 -6 0 -13 -7 -15 -15 -4
-13 -3 -13 6 0 9 13 11 13 11 -2 0 -10 -4 -18 -8 -18 -4 0 -13 -14 -19 -31
-10 -27 -14 -29 -33 -19 -11 6 -25 8 -30 5 -6 -3 -10 -1 -10 5 0 6 -5 8 -10 5
-17 -10 0 -26 21 -20 21 7 28 -18 8 -31 -8 -4 -7 -9 2 -15 10 -6 10 -9 2 -9
-6 0 -15 5 -18 10 -5 8 -12 7 -23 -2 -10 -8 -13 -9 -9 -1 4 6 3 15 -3 18 -7 5
-8 11 -1 19 7 8 6 17 -1 26 -8 13 -9 12 -5 -1 7 -21 -11 -39 -32 -32 -14 4
-14 3 -1 -6 13 -9 12 -13 -7 -31 -12 -11 -26 -19 -30 -18 -10 3 -53 -24 -53
-33 0 -3 7 -6 15 -6 8 0 11 5 8 10 -4 6 -1 7 7 2 9 -6 11 -4 5 5 -6 9 -4 11 4
5 9 -5 7 -13 -10 -31 -12 -13 -26 -21 -30 -18 -5 3 -9 -5 -9 -17 0 -16 -5 -20
-20 -16 -11 3 -18 2 -15 -3 7 -12 -22 -33 -37 -25 -7 4 -5 0 4 -7 24 -20 26
-40 5 -43 -9 -2 -15 1 -12 5 3 5 0 12 -7 16 -7 4 -10 4 -6 -1 4 -4 -1 -20 -12
-35 -11 -15 -16 -30 -12 -34 4 -4 3 -7 -3 -5 -5 1 -21 -3 -35 -9 -14 -6 -19
-11 -12 -11 21 -1 13 -17 -10 -18 -13 -1 -24 -7 -26 -13 -2 -5 -10 -10 -18
-10 -9 0 -12 5 -9 10 3 6 2 10 -2 10 -5 0 -14 -9 -21 -21 -8 -12 -9 -18 -3
-14 6 3 11 2 11 -4 0 -5 -6 -11 -12 -14 -10 -3 -10 -9 -1 -24 10 -18 8 -20
-18 -20 -16 0 -29 4 -29 9 0 5 -4 6 -10 3 -5 -3 -10 -11 -10 -16 0 -6 5 -7 10
-4 6 3 13 -1 17 -10 7 -20 -12 -34 -38 -28 -13 4 -19 0 -19 -11 0 -10 -3 -15
-8 -13 -4 3 -8 -6 -8 -20 -2 -17 2 -23 12 -19 8 3 14 1 14 -5 0 -6 -10 -9 -22
-7 -13 2 -22 9 -20 16 1 8 -2 10 -9 7 -8 -5 -8 -10 0 -18 15 -15 14 -30 -1
-21 -7 4 -4 -3 7 -17 11 -13 13 -18 4 -11 -9 6 -19 9 -22 5 -7 -6 -11 12 -8
30 1 5 -3 6 -9 2 -6 -3 -8 -10 -5 -15 3 -5 -3 -13 -12 -19 -10 -6 -12 -11 -5
-11 6 0 12 -7 12 -16 0 -10 6 -14 14 -11 10 4 13 1 10 -8 -3 -7 -14 -13 -24
-12 -10 1 -17 4 -14 8 2 4 -5 5 -16 2 -11 -3 -20 -10 -20 -15 0 -5 4 -7 8 -4
5 3 9 -1 9 -9 0 -8 -4 -12 -9 -9 -4 3 -8 -6 -8 -19 0 -17 -5 -24 -17 -23 -22
1 -31 -52 -11 -66 9 -6 5 -8 -12 -6 l-25 3 -2 -1090 c-2 -599 1 -1085 5 -1079
4 6 14 11 23 11 22 0 20 -48 -4 -72 -11 -11 -17 -14 -13 -7 4 6 2 12 -3 12
-14 0 -14 -6 2 -31 10 -17 10 -23 0 -26 -9 -3 -13 -26 -13 -66 0 -57 3 -64 38
-102 l37 -40 -37 34 -38 35 0 -121 0 -121 65 -7 c50 -5 72 -12 90 -31 22 -22
24 -22 22 -4 -1 11 -6 20 -11 20 -6 0 -5 5 1 11 9 9 16 7 28 -5 16 -16 18 -15
36 5 18 21 24 16 20 -18 -1 -7 4 -23 11 -35 7 -13 11 -27 10 -31 -1 -5 2 -6 7
-2 6 3 15 -4 21 -15 8 -16 8 -20 -2 -18 -7 2 -12 -3 -10 -10 1 -7 -3 -12 -10
-11 -27 3 -38 -2 -38 -18 0 -15 2 -14 16 3 13 16 15 16 10 2 -3 -11 0 -18 7
-18 8 0 7 -4 -3 -10 -8 -5 -12 -12 -8 -15 3 -3 13 1 22 10 14 14 18 12 15 -11
0 -3 8 -13 18 -21 16 -13 17 -14 1 -9 -22 7 -25 -19 -3 -28 8 -3 14 -13 14
-23 -1 -17 -2 -17 -6 0 -2 9 -8 17 -13 17 -4 0 -6 -9 -3 -20 3 -11 10 -20 15
-20 6 0 8 -7 5 -15 -4 -8 -2 -17 3 -20 6 -4 10 -17 10 -31 0 -14 4 -22 10 -19
6 3 10 1 10 -4 0 -14 -17 -14 -25 -1 -3 6 -11 10 -17 10 -6 0 -3 -9 7 -20 10
-11 21 -18 23 -15 12 12 41 -50 35 -76 -3 -14 0 -30 6 -33 7 -5 9 -1 5 11 -5
15 -4 15 4 3 8 -10 7 -19 -1 -29 -8 -10 -8 -13 -1 -8 13 7 24 -13 24 -41 0
-15 -2 -15 -11 -2 -9 13 -10 13 -6 0 2 -9 14 -14 28 -13 13 1 18 -1 11 -4 -9
-4 -10 -8 -2 -18 8 -10 8 -15 -1 -21 -8 -5 -9 -3 -4 6 5 8 4 11 -3 7 -14 -9
-3 -47 13 -47 7 0 15 -7 19 -15 3 -8 1 -15 -4 -15 -14 0 -6 -54 10 -67 8 -6
18 -9 22 -7 4 2 10 0 13 -6 4 -6 1 -9 -7 -8 -7 2 -12 -3 -10 -10 1 -7 3 -24 4
-37 1 -13 6 -21 10 -19 13 8 9 -11 -4 -25 -11 -11 -10 -12 1 -6 11 6 13 2 7
-21 -4 -19 -3 -24 3 -15 5 8 16 11 25 8 18 -7 22 -27 5 -27 -5 0 -7 5 -3 12 4
7 3 8 -5 4 -16 -10 -6 -55 19 -81 11 -12 20 -29 20 -38 0 -11 5 -14 16 -10 14
5 15 3 5 -16 -9 -17 -9 -26 2 -41 15 -22 28 -17 20 8 -4 14 -3 15 5 2 6 -8 8
-18 6 -22 -3 -4 0 -8 7 -8 7 0 4 -7 -7 -15 -13 -11 -14 -14 -4 -13 8 2 14 -2
13 -8 -1 -6 4 -11 12 -11 7 0 11 7 8 16 -3 10 0 8 8 -3 9 -15 9 -21 1 -24 -7
-2 -12 -8 -12 -13 0 -6 5 -7 12 -3 7 5 9 0 6 -14 -5 -18 -3 -20 11 -12 13 6
18 5 18 -5 0 -8 -3 -12 -7 -10 -3 2 -6 -5 -7 -15 -1 -11 2 -22 8 -25 5 -3 6 1
3 9 -6 17 4 21 22 8 14 -9 27 -45 14 -37 -6 3 -10 2 -10 -3 0 -16 43 -22 59
-9 8 7 5 -2 -7 -20 -16 -23 -19 -34 -11 -39 7 -4 9 -3 6 3 -4 6 -1 16 7 22 10
9 16 8 26 -4 7 -8 9 -15 6 -15 -4 0 -1 -6 6 -14 7 -8 15 -12 18 -11 4 2 12 -5
19 -17 11 -18 10 -19 -11 -14 -13 3 -10 0 9 -9 17 -8 35 -24 38 -36 6 -17 9
-19 16 -8 6 9 9 10 9 2 0 -6 -5 -15 -10 -18 -6 -4 -8 -11 -4 -16 4 -6 11 -6
20 2 12 10 13 9 8 -5 -4 -11 -1 -16 11 -16 11 0 15 -5 11 -15 -3 -10 1 -15 12
-15 16 -1 16 -1 0 -13 -15 -12 -15 -15 7 -31 14 -10 22 -22 19 -27 -2 -4 13
-20 36 -35 22 -15 40 -32 40 -38 0 -6 4 -5 9 3 5 8 11 9 15 3 4 -6 -1 -15 -10
-20 -19 -10 -11 -32 11 -32 8 0 18 -7 23 -16 8 -15 10 -15 15 0 4 10 3 15 -2
12 -5 -3 -14 1 -20 8 -9 11 -9 16 0 22 7 4 9 3 6 -3 -4 -6 3 -11 16 -12 45 -1
57 -5 57 -18 0 -10 -7 -13 -22 -9 -13 3 -17 3 -10 0 6 -3 12 -10 12 -15 0 -6
-6 -7 -12 -3 -9 6 -9 3 0 -9 8 -9 12 -20 9 -24 -3 -4 8 -8 24 -9 l29 -1 -22
18 c-23 21 -18 25 12 9 15 -8 17 -6 13 10 -3 11 0 20 6 20 6 0 11 -7 11 -15 0
-8 6 -14 12 -13 7 2 12 -5 12 -14 -1 -10 3 -15 9 -11 6 4 8 -4 4 -23 -3 -16
-4 -23 -1 -17 4 9 11 10 25 3 10 -6 19 -7 19 -3 0 4 5 2 12 -5 7 -7 25 -12 41
-12 15 0 26 -4 23 -9 -3 -5 1 -11 8 -14 8 -3 17 -2 20 4 2 5 3 4 2 -3 -2 -7
-16 -13 -34 -12 -26 0 -29 -2 -21 -18 12 -22 72 -21 64 1 -4 11 -3 12 10 1 8
-7 12 -17 8 -23 -4 -6 0 -8 11 -4 9 4 27 0 40 -8 12 -8 26 -12 31 -8 4 5 5 2
1 -5 -6 -11 -13 -10 -32 3 -15 10 -24 11 -24 4 0 -6 -7 -9 -15 -5 -27 10 -16
-2 17 -18 35 -18 58 -21 58 -7 0 13 53 9 62 -4 13 -18 9 -23 -14 -18 -19 5
-21 3 -11 -8 7 -7 13 -18 13 -23 0 -6 -4 -5 -9 3 -6 9 -11 10 -15 3 -4 -6 6
-19 21 -29 15 -10 31 -22 35 -28 5 -6 11 -6 20 3 9 9 8 12 -6 12 -10 0 -14 4
-10 12 5 8 2 9 -9 5 -10 -3 -17 -2 -17 3 0 16 35 17 53 1 15 -13 18 -13 15 -1
-2 9 6 15 19 16 12 1 20 -3 17 -8 -3 -4 -10 -6 -15 -3 -5 4 -9 -6 -9 -20 0
-15 4 -24 10 -20 6 3 10 1 10 -6 0 -10 3 -10 12 -1 17 17 33 15 19 -2 -9 -11
-6 -17 14 -30 14 -9 25 -12 25 -7 0 14 53 8 58 -7 2 -6 -3 -12 -12 -12 -9 0
-16 -4 -16 -8 0 -14 43 -29 71 -25 17 2 26 -1 26 -11 0 -9 -7 -12 -16 -9 -11
4 -13 3 -6 -4 14 -15 59 -28 51 -15 -3 6 0 13 6 15 10 4 10 6 1 6 -7 1 -13 6
-13 11 0 18 19 11 31 -11 8 -15 8 -19 0 -15 -6 4 -11 2 -11 -3 0 -6 8 -11 18
-11 15 -1 15 -2 -3 -17 -16 -13 -17 -15 -3 -10 13 5 18 1 18 -12 0 -11 -3 -21
-7 -24 -5 -2 -1 -2 7 1 8 2 20 5 27 5 6 0 9 6 7 12 -3 7 4 11 18 10 13 -1 25
-10 28 -21 7 -26 29 -29 47 -7 13 16 14 16 9 1 -3 -10 -1 -20 5 -23 5 -4 7
-11 3 -16 -3 -6 -12 -5 -22 3 -15 11 -15 11 -5 -3 9 -11 9 -19 2 -26 -7 -7 -5
-12 6 -17 10 -3 18 1 23 12 9 22 68 26 76 5 3 -8 2 -12 -2 -9 -4 2 -14 1 -21
-4 -10 -6 -9 -9 7 -14 12 -4 24 -16 27 -27 4 -12 13 -18 21 -15 20 8 43 -20
37 -46 -5 -17 -3 -20 10 -15 12 4 17 1 17 -11 0 -14 2 -15 9 -3 6 9 6 22 1 31
-5 9 -4 23 1 32 6 10 10 198 10 447 0 237 4 433 8 436 5 2 66 0 137 -5 70 -5
237 -10 370 -10 246 -1 353 9 484 46 30 8 71 19 90 24 19 5 105 32 190 59 397
128 472 169 800 433 129 105 335 321 418 440 13 18 52 74 88 123 213 295 324
551 368 850 9 56 23 121 32 145 13 35 18 86 20 225 2 99 6 216 10 260 5 65 0
117 -25 271 -18 109 -31 228 -31 278 0 47 1 86 3 87 1 0 358 3 793 6 l792 6
76 -116 c92 -140 195 -279 273 -371 134 -157 408 -414 587 -551 133 -101 390
-257 541 -329 55 -26 125 -60 155 -76 30 -15 75 -33 100 -40 25 -6 70 -22 100
-35 30 -12 84 -31 120 -40 36 -10 74 -23 85 -30 11 -6 54 -17 95 -25 41 -7 89
-21 105 -31 17 -10 54 -18 85 -20 30 -1 60 -6 65 -10 6 -4 42 -10 80 -12 39
-3 117 -10 175 -16 115 -11 648 -15 675 -5 9 4 28 30 42 58 33 65 97 147 164
211 37 35 31 26 -22 -31 -70 -77 -149 -194 -149 -221 0 -28 37 -11 60 27 14
22 29 40 33 40 5 0 -1 -14 -14 -31 -29 -41 -15 -57 39 -41 22 7 58 12 81 12
22 0 41 5 41 10 0 6 16 10 35 10 36 0 87 10 243 49 52 14 211 60 247 73 34 12
80 27 175 57 36 11 124 49 195 84 72 35 141 68 155 72 14 4 43 20 64 36 22 16
44 29 48 29 5 0 44 25 88 55 44 30 84 55 89 55 5 0 14 7 21 15 7 9 15 13 18
11 5 -6 30 12 102 74 25 21 61 52 81 69 20 17 47 32 60 33 l24 3 3 -362 2
-363 695 0 694 0 133 90 c359 242 490 332 568 393 26 20 50 37 53 37 9 0 71
43 124 86 27 22 64 48 83 58 19 11 56 37 82 59 26 21 51 36 57 32 8 -4 11
-707 11 -2371 0 -2133 -2 -2365 -16 -2371 -9 -3 -26 5 -42 19 -15 14 -47 37
-72 52 -25 15 -70 45 -100 67 -82 60 -117 84 -205 141 -44 29 -102 69 -129 88
-78 56 -259 181 -421 290 l-150 101 -115 -6 c-63 -3 -286 -9 -495 -13 -369 -8
-401 -11 -455 -39 -14 -7 -32 -13 -40 -13 -9 0 -20 -4 -25 -9 -11 -9 -107 -41
-125 -41 -6 0 -8 4 -5 10 3 5 14 10 24 10 17 0 40 9 146 55 17 7 37 15 45 18
8 3 -6 6 -32 6 -26 1 -50 5 -53 11 -4 6 -55 10 -121 10 l-114 0 0 -61 c0 -54
2 -61 22 -67 21 -5 21 -6 2 -12 -19 -7 -19 -25 -25 -746 -3 -472 -9 -755 -16
-782 -22 -91 -92 -211 -161 -278 -36 -35 -71 -64 -78 -64 -6 0 -23 -9 -38 -21
-14 -11 -54 -32 -89 -47 -62 -26 -63 -26 -396 -30 l-334 -4 8 -222 c7 -226 7
-229 -31 -361 -20 -69 -112 -200 -175 -248 -70 -53 -150 -95 -204 -107 -29 -7
-1201 -10 -3378 -10 -3308 0 -3334 0 -3398 20 -113 35 -218 108 -272 188 -21
31 -44 64 -51 72 -7 8 -23 42 -36 74 -19 49 -25 86 -30 200 -3 78 -2 149 2
158 4 9 8 67 8 128 l0 111 -297 -1 c-164 -1 -314 2 -333 5 -62 11 -144 39
-165 56 -11 9 -38 26 -60 37 -47 24 -129 107 -174 177 -17 27 -43 84 -56 128
-24 76 -25 85 -25 395 l0 318 -399 -2 c-219 0 -403 -4 -409 -8 -7 -4 -48 -18
-93 -31 -45 -14 -87 -29 -93 -34 -6 -5 -65 -27 -131 -49 -66 -23 -145 -50
-175 -61 -72 -28 -98 -27 -104 2 -7 34 -14 1234 -7 1245 14 20 46 21 107 1 36
-12 68 -18 71 -15 3 3 11 -1 18 -10 12 -17 265 -105 265 -92 0 4 5 8 11 8 5 0
7 -6 4 -12 -4 -7 1 -4 10 7 16 20 16 19 10 -5 -6 -24 -2 -27 55 -44 34 -10 68
-25 76 -33 12 -12 33 -14 107 -9 132 9 327 9 510 0 86 -4 157 -5 158 -3 0 2 2
114 5 249 4 194 3 248 -8 261 -39 48 -272 136 -532 200 -49 12 -149 71 -199
118 -37 34 -97 117 -124 171 -14 28 -33 58 -48 76 -5 7 -21 27 -35 46 -48 64
-113 128 -161 159 -27 17 -49 35 -49 40 0 5 0 11 0 14 0 3 -9 14 -20 25 -18
18 -24 37 -21 66 1 6 -10 17 -24 24 -14 7 -31 23 -39 35 -7 11 -40 41 -72 65
-33 24 -102 87 -154 140 -83 85 -102 99 -153 114 -45 14 -71 16 -115 10 l-57
-8 47 -6 c27 -3 54 -12 60 -19 11 -11 10 -12 0 -7 -7 5 -75 7 -150 6 -190 -4
-182 -5 -206 21 -20 22 -20 23 0 6 22 -18 75 -21 109 -7 16 7 17 9 3 9 -9 1
-24 9 -34 19 -58 58 -249 152 -309 152 -31 0 -12 -16 50 -44 36 -16 69 -34 75
-41 5 -6 -16 1 -48 17 -88 43 -92 41 -92 -44 0 -71 1 -73 42 -117 l43 -44 -36
21 c-20 12 -39 22 -43 22 -11 0 -7 -4409 5 -4521 39 -384 188 -699 458 -970
271 -270 586 -419 970 -458 160 -17 3713 -15 3730 2 11 10 13 10 7 0 -9 -16
8230 -19 8384 -3 384 40 701 190 971 459 237 237 376 502 446 851 15 78 17
230 20 1803 3 1348 1 1717 -9 1717 -9 0 -9 3 0 12 9 9 12 665 12 2890 l0 2878
-34 0 c-18 0 -50 -7 -69 -15 -20 -8 -58 -15 -85 -15 -40 0 -57 6 -87 30 -27
21 -49 30 -75 30 -58 0 -80 31 -80 111 1 36 7 75 15 89 17 29 20 96 5 105 -5
3 -10 16 -10 29 0 25 -25 61 -113 166 -63 74 -136 125 -169 116 -12 -2 -34 2
-50 10 -28 14 -29 14 -77 -31 -56 -52 -196 -133 -256 -147 -22 -5 -60 -13 -85
-17 -25 -4 -55 -13 -67 -19 -12 -7 -36 -12 -53 -12 -17 0 -41 -5 -53 -12 -12
-6 -40 -15 -62 -19 -94 -18 -127 -27 -138 -38 -6 -6 -20 -11 -31 -12 -12 0
-64 -22 -116 -47 l-94 -48 -12 -64 c-7 -36 -13 -86 -13 -111 -1 -25 -25 -126
-55 -225 -30 -98 -61 -204 -70 -234 -8 -30 -54 -134 -102 -230 -47 -96 -95
-196 -105 -223 -21 -52 -119 -220 -181 -307 -125 -178 -350 -435 -487 -557
-340 -303 -674 -514 -1061 -666 -179 -71 -554 -169 -715 -188 -48 -5 -91 -11
-94 -14 -4 -2 -61 -11 -127 -19 -98 -13 -163 -14 -369 -6 -272 10 -320 15
-500 60 -66 16 -160 36 -210 45 -177 32 -475 142 -700 258 -182 94 -321 181
-478 298 -417 312 -734 688 -976 1159 -35 69 -67 127 -71 130 -33 27 -201 543
-220 678 -5 40 -15 93 -21 120 -16 67 -32 425 -32 712 0 205 4 266 22 374 77
458 232 876 461 1245 487 785 1280 1331 2190 1510 525 103 1094 73 1612 -85
85 -26 89 -27 108 -9 47 43 102 65 136 56 48 -13 41 -31 -13 -31 -26 0 -52 -4
-58 -8 -16 -12 -51 -56 -38 -49 6 4 13 3 15 -1 4 -10 134 -64 163 -68 11 -1
50 -3 86 -3 76 -1 98 -13 109 -61 l8 -35 1 38 c1 26 5 37 14 34 7 -2 11 -20
10 -43 l-1 -39 91 -50 c129 -70 362 -227 492 -331 61 -49 175 -154 255 -234
80 -79 149 -144 153 -142 5 1 6 -1 3 -6 -3 -5 13 -31 36 -58 243 -293 435
-623 566 -974 54 -144 126 -386 137 -463 4 -26 12 -47 18 -47 6 0 20 -9 32
-20 l21 -20 88 27 c73 24 95 36 138 78 29 29 63 76 81 113 27 59 50 83 64 69
3 -3 -4 -26 -16 -50 -11 -24 -21 -47 -21 -51 0 -10 -83 -118 -104 -135 -9 -7
-16 -20 -16 -27 0 -12 4 -12 23 -2 25 15 87 77 87 88 0 36 95 73 122 47 14
-15 71 -29 63 -17 -3 4 2 13 10 20 12 10 27 5 82 -26 38 -22 75 -42 84 -46 9
-3 47 -27 84 -52 38 -25 72 -46 77 -46 4 0 8 -9 8 -19 0 -24 19 -38 30 -21 8
14 51 10 50 -5 -1 -5 -12 -9 -26 -8 -41 3 -27 -42 16 -50 48 -9 70 -19 70 -33
0 -8 7 -14 15 -14 8 0 15 -4 15 -10 0 -5 11 -10 25 -10 25 0 78 -47 69 -62 -3
-4 2 -8 11 -8 8 0 18 -7 21 -15 4 -8 10 -15 16 -15 13 0 58 -47 51 -54 -4 -3
8 -6 25 -6 24 0 30 -4 26 -15 -5 -13 -2 -14 21 -5 14 5 42 10 60 10 45 0 38
-21 -16 -44 -56 -25 -43 -29 19 -7 77 29 54 9 -27 -23 -43 -17 -80 -39 -96
-58 -14 -16 -25 -25 -25 -20 0 5 18 26 40 46 56 50 40 45 -31 -10 -66 -52
-120 -144 -102 -173 17 -28 135 -111 158 -111 42 0 85 -21 91 -45 6 -23 6 -23
25 -4 11 11 33 19 54 19 36 0 43 -8 24 -27 -7 -7 -3 -12 17 -17 18 -5 30 -3
35 6 6 8 9 9 9 2 0 -7 13 -10 33 -8 17 1 40 3 49 3 17 1 73 52 80 73 2 6 18
11 36 11 l32 0 0 61 c0 55 -1 58 -15 40 -8 -10 -15 -24 -15 -30 -1 -35 -108
-109 -150 -102 -17 2 -12 9 29 36 28 18 58 47 67 65 10 18 27 46 40 62 12 17
27 48 33 70 15 54 15 1981 0 2126 -39 384 -188 699 -458 970 -269 268 -589
420 -966 458 -101 11 -88 16 -156 -73 -24 -32 -29 -49 -29 -95 0 -59 8 -78 64
-141 17 -20 7 -12 -21 16 -53 52 -53 52 -53 116 0 66 6 81 62 147 32 36 30 55
-2 26 -18 -17 -20 -17 -14 -2 6 16 -13 17 -245 17 -138 0 -251 -2 -251 -5 0
-2 9 -19 20 -37 11 -19 20 -51 20 -73 0 -23 4 -45 8 -50 11 -13 33 -65 27 -65
-12 0 -45 87 -45 118 0 19 -10 52 -22 73 l-22 39 -618 0 c-679 0 -637 4 -604
-58 7 -15 22 -48 34 -73 37 -83 182 -308 220 -340 20 -17 28 -26 17 -21 -36
19 -101 96 -157 187 -66 106 -138 258 -138 290 0 8 -4 15 -10 15 -5 0 -10 -11
-10 -25 0 -14 -4 -25 -10 -25 -5 0 -12 11 -16 25 l-6 25 -819 0 c-805 0 -819
0 -819 -19 0 -11 -12 -33 -26 -48 l-25 -28 21 31 c12 18 18 37 14 47 -6 16
-38 17 -384 17 l-378 0 95 -96 c53 -53 110 -102 127 -110 17 -7 25 -13 17 -14
-28 0 -110 62 -149 114 -23 29 -61 65 -86 80 l-45 26 -1322 0 c-1242 0 -1323
-1 -1335 -18 -13 -16 -13 -16 -14 1 0 16 -28 17 -449 17 -254 0 -452 -4 -455
-9z m54 -11 c0 -5 -4 -10 -10 -10 -5 0 -10 5 -10 10 0 6 5 10 10 10 6 0 10 -4
10 -10z m2360 0 c0 -5 -9 -10 -21 -10 -11 0 -17 5 -14 10 3 6 13 10 21 10 8 0
14 -4 14 -10z m-1474 -152 c1 -208 25 -356 65 -404 18 -22 116 -63 159 -67
l45 -4 -47 -1 c-54 -2 -123 24 -155 60 -48 51 -71 161 -80 383 -3 100 1 185
10 185 1 0 2 -69 3 -152z m1291 146 c-3 -3 -12 -4 -19 -1 -8 3 -5 6 6 6 11 1
17 -2 13 -5z m103 -24 c0 -5 -7 -10 -15 -10 -8 0 -15 5 -15 10 0 6 7 10 15 10
8 0 15 -4 15 -10z m1345 -58 c32 -41 42 -62 31 -62 -5 0 -126 120 -126 125 0
2 14 -1 30 -7 17 -5 46 -31 65 -56z m2413 4 c3 -20 0 -27 -10 -24 -7 3 -14 17
-16 32 -3 20 0 27 10 24 7 -3 14 -17 16 -32z m-4142 9 c-21 -16 -32 -13 -21 4
3 6 14 11 23 11 15 -1 15 -2 -2 -15z m2384 0 c0 -2 -10 -9 -22 -15 -22 -11
-22 -10 -4 4 21 17 26 19 26 11z m-3953 -65 c6 0 14 -6 16 -12 4 -10 8 -9 16
2 7 10 11 11 11 3 0 -7 7 -13 15 -13 10 0 15 -10 15 -30 0 -18 -5 -30 -13 -30
-18 0 -87 62 -87 79 0 7 -6 11 -12 9 -7 -3 -19 2 -27 10 -12 11 -12 15 -1 22
9 6 21 1 35 -16 11 -13 26 -24 32 -24z m1612 13 c-63 -54 -105 -100 -148 -163
-38 -54 -183 -204 -215 -222 -9 -5 27 32 79 83 53 51 105 108 117 128 32 52
92 120 149 169 28 23 54 42 57 42 3 0 -14 -17 -39 -37z m-79 23 c0 -2 -8 -10
-17 -17 -16 -13 -17 -12 -4 4 13 16 21 21 21 13z m2345 -26 c-3 -5 -12 -10
-18 -10 -7 0 -6 4 3 10 19 12 23 12 15 0z m1863 -30 c3 -21 2 -22 -12 -11 -19
16 -21 44 -3 39 6 -3 14 -15 15 -28z m-2363 -12 c14 -6 25 -15 25 -20 0 -4 29
-22 64 -38 47 -23 85 -32 145 -37 45 -3 81 -10 81 -14 0 -12 -86 -22 -133 -15
-49 7 -101 32 -137 64 -13 12 -30 22 -36 22 -6 0 -21 11 -34 25 -25 27 -16 32
25 13z m-3245 -33 c0 -8 -7 -15 -15 -15 -8 0 -15 7 -15 15 0 8 7 15 15 15 8 0
15 -7 15 -15z m5674 -64 c9 -8 16 -20 16 -28 0 -20 50 -82 125 -157 80 -81
140 -126 168 -126 12 0 29 -5 37 -10 11 -7 6 -10 -21 -10 -20 0 -42 7 -49 15
-7 8 -19 15 -27 15 -19 0 -84 51 -134 105 -21 22 -64 83 -95 135 -32 52 -62
97 -66 98 -4 2 -8 13 -8 25 1 18 4 15 20 -14 10 -19 26 -41 34 -48z m-2289 51
c-3 -3 -11 0 -18 7 -9 10 -8 11 6 5 10 -3 15 -9 12 -12z m-3267 -21 c2 -6 10
-11 18 -11 12 0 12 -2 2 -14 -9 -10 -15 -11 -20 -3 -4 7 -25 11 -48 11 -34 -1
-40 2 -40 19 0 17 5 19 42 14 24 -3 44 -11 46 -16z m6821 -21 l23 -35 -26 30
c-14 17 -26 34 -26 39 0 11 0 11 29 -34z m385 -46 c16 -19 26 -37 24 -40 -6
-5 -68 56 -68 68 0 16 15 6 44 -28z m-7151 19 c-7 -2 -13 -12 -13 -20 0 -9 -3
-14 -6 -10 -10 10 4 37 18 36 10 0 10 -2 1 -6z m42 -64 c4 -10 10 -19 14 -19
4 0 7 -9 8 -20 1 -16 -4 -20 -28 -20 -19 0 -29 5 -29 15 0 8 -7 15 -15 15 -8
0 -15 7 -15 15 0 8 7 15 15 15 8 0 15 7 15 15 0 20 28 8 35 -16z m6795 -29
c15 -28 20 -56 18 -102 l-1 -63 -6 70 c-4 39 -14 85 -24 103 -10 17 -15 32
-12 32 2 0 14 -18 25 -40z m430 14 c0 -2 -9 0 -20 6 -11 6 -20 13 -20 16 0 2
9 0 20 -6 11 -6 20 -13 20 -16z m-7160 6 c0 -5 -7 -10 -15 -10 -8 0 -15 5 -15
10 0 6 7 10 15 10 8 0 15 -4 15 -10z m7194 -57 c-6 -9 -17 -19 -25 -21 -8 -2
-5 3 6 11 18 14 18 18 6 39 -13 22 -13 22 5 5 14 -13 16 -21 8 -34z m-50 12
c4 -10 -1 -15 -14 -15 -20 0 -26 11 -13 23 10 11 20 8 27 -8z m-2340 -51 c9
-8 16 -21 16 -27 0 -6 -7 -1 -16 11 -18 27 -63 29 -102 6 l-27 -16 25 21 c30
24 82 27 104 5z m1367 -1 c13 -16 12 -17 -3 -4 -17 13 -22 21 -14 21 2 0 10
-8 17 -17z m952 6 c-18 -5 -39 -19 -48 -31 -8 -13 -15 -17 -15 -11 0 18 50 53
74 52 15 -1 12 -4 -11 -10z m-2253 -34 c13 -21 30 -35 42 -35 29 0 16 -24 -15
-28 -21 -3 -31 4 -47 30 -21 35 -26 68 -11 68 5 0 19 -16 31 -35z m-3945 -4
c-3 -6 -16 -16 -28 -22 -21 -11 -21 -10 2 15 23 25 40 29 26 7z m3925 -55 c0
-5 -7 -1 -15 10 -8 10 -14 24 -14 29 0 6 6 1 14 -9 8 -11 15 -24 15 -30z
m-4690 3 c0 -5 -4 -9 -10 -9 -5 0 -10 7 -10 16 0 8 5 12 10 9 6 -3 10 -10 10
-16z m4870 1 c0 -5 -6 -10 -14 -10 -8 0 -18 5 -21 10 -3 6 3 10 14 10 12 0 21
-4 21 -10z m833 3 c-7 -2 -21 -2 -30 0 -10 3 -4 5 12 5 17 0 24 -2 18 -5z
m337 -9 c0 -2 -7 -4 -15 -4 -8 0 -15 4 -15 10 0 5 7 7 15 4 8 -4 15 -8 15 -10z
m-5430 1 c0 -2 -10 -9 -22 -15 -22 -11 -22 -10 -4 4 21 17 26 19 26 11z m74
-10 c-4 -8 -10 -15 -14 -15 -8 0 -105 -60 -126 -78 -6 -5 -20 -13 -31 -16 -12
-4 -27 -13 -33 -21 -7 -8 -29 -15 -49 -15 -20 0 -42 -5 -48 -11 -15 -15 -93
-13 -109 4 -4 4 -29 7 -57 7 -34 0 -57 6 -74 20 -14 11 -32 20 -41 20 -18 0
-85 57 -94 82 -7 16 -5 17 13 8 11 -6 23 -18 25 -25 3 -8 16 -17 27 -21 12 -3
29 -13 38 -21 19 -16 94 -32 191 -40 97 -8 249 35 288 81 7 9 17 16 22 16 5 0
21 9 35 20 30 24 45 26 37 5z m6251 -47 c4 -7 -3 -2 -14 12 -11 14 -21 32 -21
40 0 13 5 5 35 -52z m-847 12 c17 -11 32 -22 32 -25 0 -2 -15 4 -32 15 -42 25
-70 25 -93 0 -20 -22 -109 -75 -100 -59 4 5 23 18 43 28 20 10 46 28 56 40 24
26 52 27 94 1z m-133 -9 c-3 -6 -14 -11 -23 -11 -15 1 -15 2 2 15 21 16 32 13
21 -4z m-5435 5 c0 -2 -7 -7 -16 -10 -8 -3 -12 -2 -9 4 6 10 25 14 25 6z m-87
-33 c-7 -2 -21 -2 -30 0 -10 3 -4 5 12 5 17 0 24 -2 18 -5z m6528 -10 c13 -16
12 -17 -3 -4 -17 13 -22 21 -14 21 2 0 10 -8 17 -17z m-6613 0 c-16 -2 -40 -2
-55 0 -16 2 -3 4 27 4 30 0 43 -2 28 -4z m5850 -96 c44 -85 167 -217 202 -217
13 0 38 11 56 25 18 14 36 25 40 25 4 0 -10 -13 -32 -30 -21 -16 -48 -30 -59
-30 -46 0 -169 130 -222 235 -14 28 -35 61 -47 75 l-21 25 23 -20 c13 -10 39
-50 60 -88z m31 39 c7 -8 10 -20 6 -27 -5 -7 -15 -2 -31 17 -13 16 -23 33 -24
37 0 10 33 -8 49 -27z m-342 -8 c-3 -8 -6 -5 -6 6 -1 11 2 17 5 13 3 -3 4 -12
1 -19z m1073 -9 c0 -5 -4 -9 -10 -9 -5 0 -10 7 -10 16 0 8 5 12 10 9 6 -3 10
-10 10 -16z m-1071 -78 c1 -48 -5 -36 -13 24 -4 34 -3 43 3 30 5 -11 10 -35
10 -54z m1111 59 c0 -5 -5 -10 -10 -10 -26 0 -225 -85 -251 -108 -26 -21 -34
-23 -55 -13 -39 17 -76 13 -116 -14 -20 -14 -43 -25 -50 -25 -7 0 -1 7 14 14
15 8 38 22 50 30 26 19 71 21 99 5 17 -9 28 -6 57 15 20 14 55 32 77 41 22 9
49 20 60 25 11 5 43 18 70 29 28 10 51 19 53 20 1 1 2 -3 2 -9z m-145 -30 c-3
-5 -12 -10 -20 -10 -8 0 -17 5 -20 10 -4 6 5 10 20 10 15 0 24 -4 20 -10z
m-595 -21 c0 -6 -4 -7 -10 -4 -5 3 -10 11 -10 16 0 6 5 7 10 4 6 -3 10 -11 10
-16z m-6150 -3 c0 -2 -7 -7 -16 -10 -8 -3 -12 -2 -9 4 6 10 25 14 25 6z m-134
-41 c-8 -8 -18 -15 -22 -15 -3 0 -1 7 6 15 7 8 17 15 22 15 5 0 3 -7 -6 -15z
m6339 -25 c21 -22 34 -40 28 -40 -6 0 -26 18 -43 40 -17 22 -30 40 -28 40 2 0
22 -18 43 -40z m397 18 c-6 -6 -15 -8 -19 -4 -4 4 -1 11 7 16 19 12 27 3 12
-12z m-808 -14 c3 -8 2 -12 -4 -9 -6 3 -10 10 -10 16 0 14 7 11 14 -7z m-5956
-76 c-2 -6 -10 -14 -16 -16 -7 -2 -10 2 -6 12 7 18 28 22 22 4z m5963 -25 c13
-21 27 -44 32 -50 5 -8 3 -11 -5 -7 -22 9 -71 94 -54 94 2 0 15 -17 27 -37z
m509 22 c-7 -8 -17 -12 -22 -9 -6 4 -5 10 3 15 22 14 33 10 19 -6z m-6296 -50
c-4 -8 -8 -15 -10 -15 -2 0 -4 7 -4 15 0 8 4 15 10 15 5 0 7 -7 4 -15z m-94
-19 c0 -11 -19 -15 -25 -6 -3 5 1 10 9 10 9 0 16 -2 16 -4z m-10 -60 c0 -3 -7
-6 -15 -6 -9 0 -15 9 -15 21 0 18 2 19 15 5 8 -8 15 -17 15 -20z m5 -56 c-3
-5 -12 -10 -18 -10 -7 0 -6 4 3 10 19 12 23 12 15 0z m6020 -39 c3 -5 -23 -23
-57 -40 -35 -17 -78 -43 -97 -58 l-35 -28 18 30 c18 30 77 75 99 75 7 0 21 7
31 15 23 17 33 19 41 6z m49 -11 c-5 -5 -44 -27 -88 -49 -43 -22 -88 -48 -100
-58 l-21 -18 20 24 c11 13 56 41 100 63 44 22 82 45 84 50 1 5 6 7 9 3 3 -3 1
-9 -4 -15z m-6111 -86 c-4 -10 -10 -11 -24 -3 -25 13 -24 17 5 17 16 0 23 -5
19 -14z m-21 -28 c5 4 2 -5 -7 -20 -9 -14 -22 -23 -28 -19 -8 5 -7 8 1 11 7 2
12 13 13 25 0 12 3 16 6 9 2 -6 9 -9 15 -6z m48 -32 c0 -2 -7 -4 -15 -4 -8 0
-15 4 -15 10 0 5 7 7 15 4 8 -4 15 -8 15 -10z m-100 -8 c0 -2 -9 -6 -20 -9
-11 -3 -20 -1 -20 4 0 5 9 9 20 9 11 0 20 -2 20 -4z m5967 -18 c-3 -8 -6 -5
-6 6 -1 11 2 17 5 13 3 -3 4 -12 1 -19z m-5954 -12 c3 -15 -29 -30 -48 -22
-17 6 -17 7 1 21 20 15 44 16 47 1z m-165 -264 c7 -5 10 -16 6 -26 -3 -9 -3
-16 2 -15 27 5 40 -3 42 -26 1 -14 -1 -25 -4 -25 -12 0 -33 28 -26 36 4 5 -2
1 -14 -9 -20 -17 -22 -17 -35 0 -8 9 -9 14 -2 10 6 -4 14 -3 18 3 3 5 1 10 -6
10 -10 0 -10 3 -1 12 17 17 15 33 -2 19 -9 -7 -17 -8 -20 -2 -3 5 0 12 6 14
19 8 22 8 36 -1z m-97 -309 c-7 -12 -10 -13 -11 -4 0 11 -3 11 -15 1 -13 -11
-14 -10 -9 4 4 10 13 15 20 12 8 -3 14 0 14 6 0 6 3 9 6 5 3 -3 1 -14 -5 -24z
m-137 -219 c3 -9 11 -12 18 -8 10 6 11 4 1 -7 -7 -7 -13 -21 -13 -31 0 -10 -4
-18 -10 -18 -5 0 -7 6 -4 13 3 8 0 26 -5 40 -6 15 -7 27 -2 27 5 0 12 -7 15
-16z m-119 -254 c3 -6 -1 -7 -9 -4 -18 7 -21 14 -7 14 6 0 13 -4 16 -10z
m8561 -266 c78 -44 155 -75 209 -84 l40 -7 -37 -2 c-35 -1 -58 7 -148 48 -53
24 -193 115 -210 136 -8 10 7 2 33 -18 26 -20 77 -53 113 -73z m-943 -75 c-10
-16 -29 -40 -42 -52 -13 -13 -7 1 15 30 44 60 54 68 27 22z m1245 -26 c-10 -2
-26 -2 -35 0 -10 3 -2 5 17 5 19 0 27 -2 18 -5z m-1048 -92 c0 -13 -2 -14 -9
-2 -5 8 -21 14 -37 15 -33 1 -41 18 -18 41 16 16 18 15 41 -11 12 -15 23 -34
23 -43z m1159 -110 c7 -13 29 -44 48 -69 l35 -46 -6 -160 c-9 -276 -12 -320
-24 -343 -7 -13 -18 -23 -25 -23 -7 0 -6 4 3 10 16 10 27 122 36 373 l5 138
-35 48 c-49 68 -66 106 -65 138 1 25 2 25 8 -7 4 -19 13 -46 20 -59z m-9379
65 c0 -3 -4 -8 -10 -11 -5 -3 -10 -1 -10 4 0 6 5 11 10 11 6 0 10 -2 10 -4z
m-230 -176 c0 -5 -2 -10 -4 -10 -3 0 -8 5 -11 10 -3 6 -1 10 4 10 6 0 11 -4
11 -10z m-2270 -20 c0 -5 -2 -10 -4 -10 -3 0 -8 5 -11 10 -3 6 -1 10 4 10 6 0
11 -4 11 -10z m11235 0 c3 -5 -6 -12 -20 -16 -29 -7 -41 -1 -30 15 8 14 42 14
50 1z m-9484 -33 c-10 -9 -11 -8 -5 6 3 10 9 15 12 12 3 -3 0 -11 -7 -18z
m-2031 -7 c-20 -13 -43 -13 -35 0 4 6 10 8 15 5 5 -3 12 0 15 6 4 5 10 8 13 4
4 -3 0 -10 -8 -15z m11590 4 c0 -2 -9 -4 -21 -4 -11 0 -18 4 -14 10 5 8 35 3
35 -6z m-11811 -25 c-28 -18 -42 -9 -18 12 15 13 25 16 28 8 2 -6 -3 -15 -10
-20z m-698 -176 c13 -16 12 -17 -3 -4 -17 13 -22 21 -14 21 2 0 10 -8 17 -17z
m-984 -521 c-14 -17 -22 0 -12 26 5 14 7 14 15 2 5 -9 4 -20 -3 -28z m2143
-141 c274 -43 447 -85 421 -100 -7 -5 10 -16 46 -29 33 -12 104 -44 160 -71
443 -217 807 -570 1033 -1004 115 -222 184 -430 229 -697 31 -181 35 -289 22
-520 -14 -228 -27 -314 -65 -410 -15 -35 -42 -121 -61 -190 -20 -69 -50 -154
-66 -190 -17 -35 -32 -74 -34 -85 -1 -12 -36 -75 -78 -141 -211 -329 -486
-606 -782 -787 -247 -150 -484 -240 -798 -302 -202 -40 -257 -45 -452 -35
-272 13 -535 59 -636 110 -20 11 -59 24 -86 30 -155 34 -460 200 -656 357 -37
30 -72 51 -78 47 -16 -9 -109 92 -147 160 -19 32 -69 93 -111 135 -184 180
-384 560 -460 871 -46 188 -72 360 -75 485 -2 118 13 397 24 455 64 318 111
461 236 706 78 154 224 368 279 410 19 15 56 54 81 88 45 59 152 164 244 237
156 125 339 234 524 313 202 87 446 152 657 175 144 16 476 7 629 -18z m-2455
-111 c3 -5 1 -10 -4 -10 -6 0 -11 5 -11 10 0 6 2 10 4 10 3 0 8 -4 11 -10z
m-168 -182 c-3 -8 -6 -5 -6 6 -1 11 2 17 5 13 3 -3 4 -12 1 -19z m-26 -55 c13
-16 12 -17 -3 -4 -17 13 -22 21 -14 21 2 0 10 -8 17 -17z m-32 -52 c-6 -2 -18
4 -27 13 -15 15 -15 15 10 4 15 -7 23 -15 17 -17z m-209 -261 c0 -5 -5 -10
-11 -10 -5 0 -7 5 -4 10 3 6 8 10 11 10 2 0 4 -4 4 -10z m-30 -6 c0 -8 -19
-13 -24 -6 -3 5 1 9 9 9 8 0 15 -2 15 -3z m-16 -2166 c-5 -8 -1 -9 12 -4 14 5
16 4 8 -4 -6 -6 -19 -8 -28 -4 -14 5 -15 9 -4 15 18 12 20 11 12 -3z m56 -142
c0 -3 -4 -8 -10 -11 -5 -3 -10 -1 -10 4 0 6 5 11 10 11 6 0 10 -2 10 -4z m-35
-30 c10 -10 11 -16 2 -25 -8 -8 -8 -14 2 -23 11 -10 12 -10 7 -1 -5 9 -2 11 8
7 18 -7 22 -44 5 -44 -5 0 -7 5 -4 10 4 7 -3 9 -18 6 -18 -3 -24 0 -23 12 0
10 -5 16 -14 14 -13 -2 -13 -1 0 10 9 7 14 21 12 31 -4 20 4 22 23 3z m10395
-56 c-6 -11 -13 -20 -16 -20 -2 0 0 9 6 20 6 11 13 20 16 20 2 0 0 -9 -6 -20z
m-10336 -25 c-4 -8 -8 -15 -10 -15 -2 0 -4 7 -4 15 0 8 4 15 10 15 5 0 7 -7 4
-15z m10316 -9 c0 -2 -8 -10 -17 -17 -16 -13 -17 -12 -4 4 13 16 21 21 21 13z
m-10296 -38 c-3 -31 -3 -30 -14 -23 -7 4 -7 13 0 26 14 25 17 24 14 -3z m33
-34 c-3 -3 -12 -4 -19 -1 -8 3 -5 6 6 6 11 1 17 -2 13 -5z m-86 -71 c13 -16
12 -17 -3 -4 -10 7 -18 15 -18 17 0 8 8 3 21 -13z m124 -83 c3 -6 -1 -7 -10
-4 -11 5 -14 2 -9 -10 3 -9 10 -16 15 -16 4 0 6 -6 3 -14 -3 -8 -15 -11 -30
-8 -23 4 -35 22 -14 22 6 0 10 9 10 20 0 21 24 28 35 10z m65 -120 c0 -5 -2
-10 -4 -10 -3 0 -8 5 -11 10 -3 6 -1 10 4 10 6 0 11 -4 11 -10z m40 -24 c0 -3
-4 -8 -10 -11 -5 -3 -10 -1 -10 4 0 6 5 11 10 11 6 0 10 -2 10 -4z m21 -209
c-10 -9 -11 -8 -5 6 3 10 9 15 12 12 3 -3 0 -11 -7 -18z m175 -564 c-7 -7 -26
7 -26 19 0 6 6 6 15 -2 9 -7 13 -15 11 -17z m34 -117 c0 -2 -7 -7 -16 -10 -8
-3 -12 -2 -9 4 6 10 25 14 25 6z m-365 -576 c10 -11 16 -20 13 -20 -3 0 -13 9
-23 20 -10 11 -16 20 -13 20 3 0 13 -9 23 -20z m799 -62 c-3 -4 3 -8 12 -8 10
0 15 -3 11 -6 -7 -8 -47 5 -47 15 0 4 7 8 15 8 8 0 12 -4 9 -9z m51 -44 c14
-9 25 -24 24 -33 0 -10 -2 -11 -6 -3 -2 6 -9 10 -14 6 -5 -3 -12 2 -15 10 -3
9 -10 13 -15 10 -5 -3 -9 2 -9 10 0 20 5 20 35 0z m-623 -61 c57 -6 59 -7 93
-59 43 -64 131 -151 206 -203 52 -36 54 -39 59 -92 6 -53 23 -99 39 -99 4 0
29 -14 55 -31 84 -56 163 -144 206 -229 26 -51 90 -159 105 -176 5 -7 19 -25
30 -40 11 -16 47 -57 79 -92 33 -34 57 -65 54 -68 -6 -5 -85 59 -128 104 -33
35 -90 114 -90 124 0 5 -14 27 -30 50 -17 22 -30 47 -30 55 0 7 -4 13 -8 13
-5 0 -16 17 -25 38 -19 44 -101 132 -139 149 -31 14 -123 83 -111 83 4 0 3 4
-2 8 -31 21 -55 68 -55 104 0 48 -25 95 -55 102 -22 6 -155 130 -155 145 0 4
-15 25 -34 46 -32 35 -37 37 -76 32 -23 -3 -43 -7 -45 -9 -9 -9 9 -58 21 -58
8 0 14 -4 14 -10 0 -5 -5 -10 -11 -10 -8 0 -8 -5 1 -15 14 -16 3 -20 -19 -6
-8 5 -10 14 -5 22 6 11 5 12 -8 2 -12 -11 -17 -9 -26 13 -7 14 -12 30 -12 37
0 7 -10 14 -23 15 -37 3 -95 30 -77 36 57 20 117 34 129 30 8 -3 41 -7 73 -11z
m418 -140 c0 -8 -9 0 -50 45 l-45 47 48 -45 c26 -24 47 -45 47 -47z m-406 -20
c-6 -20 -3 -24 11 -21 10 1 20 10 22 18 4 12 3 12 -5 1 -6 -8 -12 -9 -16 -3
-3 5 1 12 9 16 21 8 45 -21 45 -55 0 -16 5 -29 11 -29 6 0 9 -9 6 -20 -3 -11
2 -25 11 -32 12 -10 14 -10 8 0 -11 19 18 15 42 -7 12 -10 22 -23 22 -30 0 -6
7 -11 15 -11 8 0 14 -5 12 -11 -1 -6 7 -16 17 -22 36 -22 78 -59 114 -102 10
-12 10 -15 0 -16 -10 0 -10 -2 0 -6 6 -2 12 -16 12 -29 0 -14 4 -22 10 -19 5
3 10 1 10 -6 0 -6 10 -21 23 -32 l22 -19 -22 6 c-14 5 -23 3 -23 -3 0 -17 -47
-13 -65 5 -23 24 -27 13 -4 -15 13 -15 26 -22 39 -18 13 3 20 0 20 -9 0 -8 6
-14 13 -14 14 0 47 -50 47 -70 0 -10 -3 -10 -15 0 -12 10 -16 9 -21 -5 -4 -10
-1 -21 7 -25 7 -5 10 -13 5 -17 -5 -4 -11 -2 -13 5 -7 19 -26 14 -21 -6 4 -15
0 -17 -29 -14 -32 4 -63 -11 -63 -29 0 -5 11 -7 25 -3 16 4 25 2 25 -5 0 -10
40 -33 62 -35 4 -1 12 -6 19 -13 6 -6 18 -9 25 -6 17 6 18 -9 2 -25 -9 -9 -9
-12 0 -12 7 0 12 5 12 10 0 6 7 10 15 10 8 0 15 -7 15 -15 0 -9 9 -15 25 -15
14 0 25 -5 25 -11 0 -6 9 -8 23 -4 17 5 19 4 7 -4 -11 -8 -12 -13 -3 -22 8 -8
15 -4 27 19 8 16 13 32 11 34 -3 2 10 2 28 0 31 -5 31 -5 9 -15 -17 -8 -21
-16 -18 -36 2 -14 5 -29 5 -32 1 -4 9 -6 19 -5 9 0 16 -5 14 -12 -1 -7 3 -12
10 -11 25 4 50 -14 64 -45 l13 -31 1 28 c0 15 4 27 8 27 19 0 29 -25 25 -60
-5 -36 -4 -38 26 -45 38 -8 41 -25 4 -26 -63 -3 -85 11 -59 36 22 22 20 25
-11 25 -22 0 -25 -2 -13 -10 12 -8 9 -10 -12 -10 -18 0 -28 5 -28 15 0 8 -7
15 -15 15 -8 0 -15 -4 -15 -10 0 -5 -9 -10 -20 -10 -11 0 -20 7 -20 15 0 12
-7 14 -27 9 -16 -4 -31 -11 -34 -16 -3 -6 -10 -10 -15 -10 -21 -1 -33 -11 -42
-36 -12 -36 -6 -51 18 -45 23 6 27 33 5 33 -8 0 -15 4 -15 9 0 5 11 9 24 9 17
0 23 -5 19 -14 -3 -8 1 -14 11 -14 9 0 16 -5 16 -11 0 -6 -7 -9 -15 -5 -8 3
-15 1 -15 -4 0 -5 9 -12 20 -15 11 -3 20 -11 20 -16 0 -14 38 -11 43 4 3 8 11
5 26 -10 12 -13 26 -23 32 -23 6 0 8 -8 5 -18 -5 -13 1 -21 21 -28 28 -11 28
-11 -7 -9 -31 1 -35 4 -32 25 2 20 1 22 -7 10 -9 -13 -15 -8 -13 11 2 11 -41
16 -68 8 -21 -6 -22 -7 -5 -9 16 -1 15 -4 -8 -12 -24 -9 -32 -7 -52 12 -14 13
-22 27 -18 33 4 6 -5 8 -23 4 -30 -6 -74 19 -74 42 0 6 -11 11 -25 11 -14 0
-25 5 -25 11 0 5 5 7 10 4 6 -3 10 -1 10 5 0 6 -13 13 -30 17 -16 3 -30 9 -30
14 0 5 -8 9 -17 8 -11 0 -13 -3 -5 -6 19 -8 14 -23 -8 -23 -18 0 -25 10 -21
32 0 4 -6 5 -15 1 -10 -4 -17 2 -21 16 -3 11 -12 21 -19 21 -8 0 -14 7 -14 15
0 8 -9 15 -20 15 -11 0 -20 7 -20 15 0 8 -7 15 -15 15 -8 0 -15 7 -15 15 0 8
-5 15 -11 15 -6 0 -17 6 -25 14 -7 8 -18 16 -24 18 -5 1 -14 24 -18 50 -9 46
-44 90 -84 103 -10 4 -18 12 -18 18 0 7 -9 19 -20 27 -11 8 -20 18 -20 22 0 4
-11 19 -25 34 -14 15 -25 23 -25 18 0 -5 -4 -3 -9 5 -17 27 -2 47 33 43 19 -2
33 -9 33 -15 -1 -34 5 -47 19 -47 8 0 13 -4 10 -9 -3 -5 1 -11 9 -15 8 -3 15
-12 15 -20 0 -10 6 -13 15 -10 8 4 15 1 15 -5 0 -6 7 -11 15 -11 8 0 15 -9 15
-20 0 -23 15 -27 23 -6 3 8 -1 17 -10 20 -10 4 -13 14 -9 31 4 14 2 25 -4 25
-5 0 -10 9 -10 20 0 11 -5 20 -11 20 -5 0 -7 5 -4 10 3 6 -1 10 -9 10 -9 0
-16 5 -16 11 0 5 -13 15 -30 20 -26 10 -30 16 -30 49 0 24 -5 40 -15 44 -8 3
-15 12 -15 21 0 8 -8 15 -17 16 -11 0 -13 3 -5 6 6 2 12 18 12 34 0 16 2 29 4
29 2 0 12 3 20 6 11 4 15 2 11 -8 -4 -9 2 -14 15 -14 13 0 20 7 20 18 0 14 -8
18 -37 18 -70 0 -83 8 -83 50 0 24 5 40 14 43 9 4 16 24 18 54 3 38 5 44 12
28 5 -11 31 -41 58 -66 26 -25 48 -50 48 -57 0 -6 7 -9 15 -6 10 4 15 0 15
-15 0 -25 15 -28 24 -4 4 11 1 22 -8 29 -19 13 -22 29 -3 17 6 -4 17 -8 23 -9
23 -4 62 -46 57 -61 -5 -12 -1 -14 15 -9 16 5 21 4 17 -6 -7 -18 6 -35 30 -40
15 -2 20 3 22 25 1 15 -3 30 -10 33 -7 2 -13 18 -14 36 -2 28 -16 47 -35 48
-4 0 -5 -12 -4 -27 3 -19 9 -27 20 -25 20 4 21 -14 2 -21 -21 -8 -54 62 -35
74 11 7 9 13 -8 31 -25 24 -40 19 -28 -9 5 -10 7 -22 6 -27 -1 -5 4 -13 11
-17 7 -4 9 -11 5 -16 -10 -9 -28 18 -22 34 2 6 -3 17 -10 23 -8 7 -12 16 -9
21 3 5 -2 16 -10 24 -8 9 -12 23 -9 31 5 14 3 15 -16 4 -16 -8 -20 -16 -15
-28 4 -9 7 -27 7 -40 -1 -20 1 -21 16 -10 14 12 15 11 2 -4 -16 -22 -31 -23
-31 -4 0 8 -18 30 -40 49 -34 28 -38 36 -24 41 11 4 22 -1 31 -14 15 -21 15
-21 34 5 22 27 19 45 -9 40 -9 -1 -11 0 -4 2 6 3 13 9 13 14 1 8 4 18 8 34 0
2 8 2 16 -1 10 -4 13 -14 9 -31z m-137 -5 c-3 -8 -6 -5 -6 6 -1 11 2 17 5 13
3 -3 4 -12 1 -19z m37 -27 c6 -9 -16 -21 -40 -21 -8 0 -11 6 -8 15 7 16 39 20
48 6z m1311 -151 c3 -6 -1 -7 -9 -4 -18 7 -21 14 -7 14 6 0 13 -4 16 -10z
m-584 -77 c13 -16 12 -17 -3 -4 -10 7 -18 15 -18 17 0 8 8 3 21 -13z m742 3
c4 -10 0 -12 -15 -8 -15 4 -17 7 -6 13 17 11 15 11 21 -5z m-1625 -59 c2 -10
-3 -17 -12 -17 -9 0 -14 8 -13 20 2 24 21 21 25 -3z m1717 13 c3 -6 -1 -7 -9
-4 -18 7 -21 14 -7 14 6 0 13 -4 16 -10z m-36 -19 c8 -5 9 -11 3 -15 -5 -3
-15 1 -22 9 -14 16 -3 20 19 6z m95 -6 c-7 -17 -20 -20 -29 -6 -3 5 3 12 12
14 10 3 19 5 20 6 1 0 0 -6 -3 -14z m-1830 -80 c3 -8 1 -15 -4 -15 -6 0 -10 7
-10 15 0 8 2 15 4 15 2 0 6 -7 10 -15z m736 -50 c0 -8 -4 -15 -8 -15 -5 0 -9
7 -9 15 0 8 4 15 9 15 4 0 8 -7 8 -15z m26 -57 c-9 -5 -14 -13 -11 -19 4 -5 1
-9 -5 -9 -6 0 -8 -5 -5 -10 4 -6 11 -7 17 -4 7 5 8 2 4 -5 -5 -8 0 -14 13 -18
27 -7 27 -23 0 -23 -11 0 -18 -4 -15 -9 4 -5 -4 -7 -15 -4 -15 4 -27 0 -35
-12 -12 -16 -14 -16 -14 -3 0 9 5 18 11 20 6 2 11 25 12 51 1 30 7 47 15 47 6
0 12 11 12 24 0 33 24 40 28 8 2 -16 -3 -29 -12 -34z m74 -6 c0 -4 -9 -8 -20
-9 -11 -1 -18 2 -15 8 7 11 35 12 35 1z m3 -21 c4 -1 7 -6 7 -12 0 -5 -4 -7
-10 -4 -5 3 -10 1 -10 -4 0 -6 7 -11 15 -11 8 0 15 -7 15 -15 0 -14 -12 -19
-32 -16 -12 2 -10 -17 2 -24 6 -3 10 -1 10 4 0 6 4 11 10 11 5 0 6 -7 3 -17
-5 -12 -3 -14 8 -8 11 6 12 5 2 -5 -10 -11 -9 -16 3 -25 13 -9 12 -11 -5 -11
-12 0 -21 4 -21 8 0 4 -8 8 -17 8 -14 0 -15 2 -4 9 17 11 4 34 -15 27 -11 -4
-12 -1 -5 12 12 22 9 45 -6 64 -11 13 -4 15 50 9z m107 -151 c0 -5 3 -16 6
-24 5 -12 2 -15 -10 -10 -9 4 -15 9 -12 12 3 2 1 13 -5 23 -7 15 -6 17 6 13 8
-4 15 -10 15 -14z m-89 -24 c5 3 9 0 9 -5 0 -6 -7 -11 -15 -11 -8 0 -15 8 -14
18 0 10 3 12 6 4 2 -6 9 -10 14 -6z m494 -56 c10 -11 16 -20 13 -20 -3 0 -13
9 -23 20 -10 11 -16 20 -13 20 3 0 13 -9 23 -20z m115 -76 c0 -2 -13 2 -30 11
-16 9 -30 18 -30 21 0 2 14 -2 30 -11 17 -9 30 -18 30 -21z m-476 10 c3 -8 2
-12 -4 -9 -6 3 -10 10 -10 16 0 14 7 11 14 -7z m567 -39 c19 -8 27 -14 18 -15
-9 0 -30 7 -45 15 -37 19 -17 19 27 0z m119 -35 c30 -7 31 -8 9 -9 -15 0 -42
6 -60 15 -22 10 -25 13 -9 9 14 -4 41 -10 60 -15z m70 -20 c8 -5 11 -10 5 -10
-5 0 -17 5 -25 10 -8 5 -10 10 -5 10 6 0 17 -5 25 -10z m47 -16 c-3 -3 -12 -4
-19 -1 -8 3 -5 6 6 6 11 1 17 -2 13 -5z m73 -26 c10 -6 7 -7 -10 -2 -14 3 -32
11 -40 16 -10 6 -7 7 10 2 14 -3 32 -11 40 -16z m-910 -31 c10 -4 8 -6 -7 -6
-16 -1 -23 5 -23 17 0 10 3 13 8 6 4 -6 14 -14 22 -17z m960 13 c8 -5 11 -10
5 -10 -5 0 -17 5 -25 10 -8 5 -10 10 -5 10 6 0 17 -5 25 -10z m-513 -16 c-3
-3 -12 -4 -19 -1 -8 3 -5 6 6 6 11 1 17 -2 13 -5z m578 -14 c3 -6 -1 -7 -9 -4
-18 7 -21 14 -7 14 6 0 13 -4 16 -10z m135 -76 c0 -2 -9 0 -20 6 -11 6 -20 13
-20 16 0 2 9 0 20 -6 11 -6 20 -13 20 -16z"/>
<path d="M470 5658 c0 -12 3 -18 7 -14 11 10 12 36 2 36 -5 0 -9 -10 -9 -22z"/>
<path d="M255 5550 c-3 -5 -3 -14 0 -20 3 -5 1 -10 -6 -10 -7 0 -10 -2 -7 -5
9 -9 38 6 32 16 -3 6 5 7 20 3 21 -5 25 -3 20 10 -7 18 -49 22 -59 6z"/>
<path d="M600 5424 c0 -8 5 -12 10 -9 6 3 10 10 10 16 0 5 -4 9 -10 9 -5 0
-10 -7 -10 -16z"/>
<path d="M358 5420 c14 -6 22 -18 22 -34 0 -13 7 -26 15 -30 8 -3 15 -1 15 4
0 6 5 10 11 10 6 0 9 -7 5 -15 -3 -8 -1 -15 4 -15 6 0 10 19 9 43 0 39 -1 40
-11 17 -10 -24 -10 -24 -18 -5 -4 11 -6 23 -3 28 2 4 -13 7 -34 6 -33 0 -35
-1 -15 -9z"/>
<path d="M706 5413 c-6 -14 -5 -15 5 -6 7 7 10 15 7 18 -3 3 -9 -2 -12 -12z"/>
<path d="M640 5385 c33 -19 50 -18 26 0 -11 8 -27 15 -35 15 -10 -1 -7 -6 9
-15z"/>
<path d="M702 5346 c7 -8 15 -12 17 -11 5 6 -10 25 -20 25 -5 0 -4 -6 3 -14z"/>
<path d="M658 5343 c7 -3 16 -2 19 1 4 3 -2 6 -13 5 -11 0 -14 -3 -6 -6z"/>
<path d="M475 5330 c3 -5 -2 -10 -12 -11 -14 0 -13 -2 5 -10 14 -5 20 -14 16
-20 -4 -7 -1 -10 7 -7 8 3 13 11 11 18 -2 8 3 10 13 7 10 -5 15 0 15 13 0 16
-7 20 -31 20 -17 0 -28 -4 -24 -10z"/>
<path d="M430 5300 c8 -5 22 -9 30 -9 10 0 8 3 -5 9 -27 12 -43 12 -25 0z"/>
<path d="M448 5273 c7 -3 16 -2 19 1 4 3 -2 6 -13 5 -11 0 -14 -3 -6 -6z"/>
<path d="M510 5271 c0 -6 5 -13 10 -16 6 -3 10 1 10 9 0 9 -4 16 -10 16 -5 0
-10 -4 -10 -9z"/>
<path d="M590 5239 c0 -7 -11 -22 -26 -35 -14 -13 -21 -24 -15 -24 5 0 12 -8
14 -17 3 -13 5 -12 6 5 1 28 23 52 47 52 13 0 14 3 4 15 -15 18 -30 20 -30 4z"/>
<path d="M627 5153 c-12 -12 -7 -30 8 -30 8 0 15 4 15 9 0 5 7 2 16 -7 20 -20
25 -16 17 13 -5 21 -41 31 -56 15z"/>
<path d="M471 5089 c4 -35 19 -60 32 -52 4 2 7 -1 7 -6 0 -6 9 -11 20 -11 11
0 20 4 20 8 0 18 -26 62 -37 62 -6 0 -19 7 -28 17 -16 15 -17 14 -14 -18z m29
-9 c0 -5 -4 -10 -10 -10 -5 0 -10 5 -10 10 0 6 5 10 10 10 6 0 10 -4 10 -10z"/>
<path d="M590 5076 c0 -2 7 -6 15 -10 8 -3 15 -1 15 4 0 6 -7 10 -15 10 -8 0
-15 -2 -15 -4z"/>
<path d="M562 5030 c0 -19 2 -27 5 -17 2 9 2 25 0 35 -3 9 -5 1 -5 -18z"/>
<path d="M712 5005 c3 -14 0 -29 -7 -33 -6 -4 -14 -15 -18 -24 -3 -10 -13 -18
-22 -18 -8 0 -15 -7 -15 -15 0 -21 22 -19 47 5 15 14 23 16 27 7 3 -7 3 -2 0
11 -4 16 0 28 13 38 16 12 16 15 3 24 -13 9 -13 11 0 20 12 8 10 10 -9 10 -20
0 -23 -4 -19 -25z"/>
<path d="M699 4897 c7 -7 14 -8 21 -1 6 6 2 10 -12 11 -16 2 -18 -1 -9 -10z"/>
<path d="M991 4894 c0 -11 3 -14 6 -6 3 7 2 16 -1 19 -3 4 -6 -2 -5 -13z"/>
<path d="M1023 4869 c-1 -13 5 -19 18 -19 24 0 25 16 1 29 -14 8 -18 6 -19
-10z"/>
<path d="M720 4864 c0 -11 6 -15 20 -11 27 7 68 -13 74 -37 2 -10 9 -15 15
-12 5 4 14 -2 20 -11 10 -17 10 -17 11 0 0 9 -5 17 -11 17 -6 0 -9 9 -6 19 8
32 -8 43 -67 47 -47 3 -56 1 -56 -12z"/>
<path d="M1084 4835 c8 -8 19 -15 25 -15 6 0 11 7 11 15 0 9 -10 15 -26 15
-23 0 -24 -2 -10 -15z"/>
<path d="M1160 4830 c0 -5 5 -10 11 -10 5 0 7 5 4 10 -3 6 -8 10 -11 10 -2 0
-4 -4 -4 -10z"/>
<path d="M4005 14965 c28 -8 66 -14 86 -15 21 0 48 -9 65 -22 l29 -21 -22 23
c-21 23 -62 34 -168 45 -38 5 -38 4 10 -10z"/>
<path d="M5527 14967 c-3 -8 1 -14 9 -14 8 0 14 6 14 14 0 7 -4 13 -9 13 -5 0
-11 -6 -14 -13z"/>
<path d="M5530 14925 c0 -10 -10 -15 -30 -15 -20 0 -30 -5 -30 -15 0 -8 7 -15
15 -15 8 0 15 -7 15 -15 0 -8 8 -15 18 -15 15 0 19 8 19 45 0 25 -2 45 -4 45
-1 0 -3 -7 -3 -15z"/>
<path d="M2050 14911 c0 -6 -22 -39 -50 -75 -27 -36 -50 -72 -50 -80 0 -8 15
-23 33 -35 67 -41 114 -108 132 -185 15 -68 65 -155 111 -193 163 -135 164
-137 70 -227 -73 -69 -127 -149 -193 -284 -53 -108 -50 -124 18 -102 23 8 36
16 29 18 -6 2 -23 -1 -36 -9 -29 -15 -42 -5 -26 21 7 11 12 26 12 33 0 22 61
133 122 225 15 23 55 67 88 99 49 46 60 63 60 89 0 27 -9 39 -56 75 -104 83
-119 97 -140 141 -38 79 -54 119 -54 136 0 49 -89 165 -136 176 -13 4 -24 11
-24 17 0 5 23 40 50 76 44 58 61 93 45 93 -3 0 -5 -4 -5 -9z"/>
<path d="M4215 14855 c19 -26 35 -55 35 -65 0 -9 8 -24 18 -31 14 -11 15 -11
5 1 -7 8 -13 25 -13 38 0 28 -33 77 -61 93 -14 7 -9 -4 16 -36z"/>
<path d="M5393 14873 c-28 -5 -30 -33 -3 -33 11 0 20 5 20 10 0 6 7 10 15 10
8 0 15 5 15 10 0 10 -8 11 -47 3z"/>
<path d="M3574 14838 l-19 -23 23 19 c21 18 27 26 19 26 -2 0 -12 -10 -23 -22z"/>
<path d="M5750 14806 c0 -13 39 -30 49 -21 2 3 -1 5 -7 5 -7 0 -12 7 -12 15 0
8 -7 15 -15 15 -8 0 -15 -6 -15 -14z"/>
<path d="M5600 14786 c0 -2 7 -6 15 -10 8 -3 15 -1 15 4 0 6 -7 10 -15 10 -8
0 -15 -2 -15 -4z"/>
<path d="M5180 14754 c0 -17 22 -14 28 4 2 7 -3 12 -12 12 -9 0 -16 -7 -16
-16z"/>
<path d="M4304 14709 c43 -51 31 -118 -43 -233 -38 -61 -41 -96 -8 -96 12 0
29 5 37 10 11 7 6 8 -17 4 -25 -5 -33 -3 -33 8 0 8 15 39 33 69 85 143 94 194
46 245 -33 35 -45 29 -15 -7z"/>
<path d="M5048 14723 c7 -3 16 -2 19 1 4 3 -2 6 -13 5 -11 0 -14 -3 -6 -6z"/>
<path d="M2958 14693 c-38 -10 -18 -29 30 -28 35 0 47 4 47 15 0 15 -43 23
-77 13z"/>
<path d="M5227 14668 c-7 -23 -1 -38 14 -38 5 0 9 14 9 30 0 35 -15 40 -23 8z"/>
<path d="M3197 14600 c-32 -37 -42 -69 -28 -83 14 -14 14 -52 0 -80 -10 -22
-10 -22 6 -2 13 16 15 32 10 76 -5 51 -3 60 21 88 14 17 24 31 21 31 -3 0 -17
-13 -30 -30z"/>
<path d="M4731 14547 c2 -1 13 -9 24 -17 19 -14 19 -14 6 3 -7 9 -18 17 -24
17 -6 0 -8 -1 -6 -3z"/>
<path d="M4794 14475 c39 -59 36 -112 -14 -280 -9 -28 -8 -29 5 -11 8 11 15
31 15 45 1 14 7 37 15 51 9 15 14 54 15 97 0 68 -2 75 -31 105 l-31 33 26 -40z"/>
<path d="M3110 14481 c0 -11 -4 -22 -9 -25 -5 -3 -11 -15 -14 -27 -5 -20 -3
-19 24 7 31 30 39 64 14 64 -8 0 -15 -9 -15 -19z"/>
<path d="M3036 14385 c-15 -14 -30 -24 -34 -23 -4 2 -20 -10 -36 -25 -16 -15
-24 -27 -18 -27 14 0 95 54 112 75 22 26 5 27 -24 0z"/>
<path d="M11277 14404 c-5 -5 104 -64 119 -64 11 0 2 40 -12 54 -15 16 -94 23
-107 10z"/>
<path d="M6159 14328 c-7 -24 -5 -38 6 -38 8 0 13 9 12 20 -1 16 -14 29 -18
18z"/>
<path d="M2885 14290 c3 -5 10 -10 16 -10 5 0 9 5 9 10 0 6 -7 10 -16 10 -8 0
-12 -4 -9 -10z"/>
<path d="M2540 14280 c0 -5 7 -10 15 -10 8 0 15 5 15 10 0 6 -7 10 -15 10 -8
0 -15 -4 -15 -10z"/>
<path d="M2627 14224 c2 -7 13 -10 24 -7 27 7 24 21 -5 19 -13 0 -22 -6 -19
-12z"/>
<path d="M2525 14201 c-9 -16 12 -22 39 -11 14 5 26 12 26 15 0 9 -59 5 -65
-4z"/>
<path d="M2696 14172 c-3 -5 8 -6 25 -4 16 2 29 6 29 8 0 8 -49 4 -54 -4z"/>
<path d="M6330 14160 c0 -5 5 -10 11 -10 5 0 7 5 4 10 -3 6 -8 10 -11 10 -2 0
-4 -4 -4 -10z"/>
<path d="M4761 14133 c0 -12 -5 -25 -11 -28 -5 -3 -10 -11 -10 -18 0 -6 7 -1
16 11 8 12 13 30 11 40 -4 13 -5 12 -6 -5z"/>
<path d="M6370 14030 c0 -13 18 -22 24 -11 3 5 -1 11 -9 15 -8 3 -15 1 -15 -4z"/>
<path d="M4733 13985 c0 -22 2 -30 4 -17 2 12 2 30 0 40 -3 9 -5 -1 -4 -23z"/>
<path d="M6460 14001 c0 -6 9 -9 19 -8 11 0 17 5 15 9 -7 11 -34 10 -34 -1z"/>
<path d="M6415 13790 c-8 -13 8 -18 30 -9 11 4 18 8 15 9 -23 7 -41 7 -45 0z"/>
<path d="M6386 13753 c-6 -14 -5 -15 5 -6 7 7 10 15 7 18 -3 3 -9 -2 -12 -12z"/>
<path d="M6316 13717 c3 -10 9 -15 12 -12 3 3 0 11 -7 18 -10 9 -11 8 -5 -6z"/>
<path d="M6390 13720 c8 -5 20 -10 25 -10 6 0 3 5 -5 10 -8 5 -19 10 -25 10
-5 0 -3 -5 5 -10z"/>
<path d="M6350 13690 c-9 -6 -10 -10 -3 -10 6 0 15 5 18 10 8 12 4 12 -15 0z"/>
<path d="M6330 13659 c0 -5 5 -7 10 -4 6 3 10 8 10 11 0 2 -4 4 -10 4 -5 0
-10 -5 -10 -11z"/>
<path d="M3628 13023 c6 -2 18 -2 25 0 6 3 1 5 -13 5 -14 0 -19 -2 -12 -5z"/>
<path d="M3690 13016 c0 -2 7 -7 16 -10 8 -3 12 -2 9 4 -6 10 -25 14 -25 6z"/>
<path d="M4678 12905 c-69 -28 -116 -63 -233 -175 -57 -55 -125 -107 -186
-143 -124 -74 -154 -105 -145 -149 3 -18 19 -46 34 -62 l27 -30 -38 22 -38 22
18 -30 c22 -38 92 -73 188 -94 39 -9 146 -34 239 -57 203 -50 240 -49 298 8
81 79 123 205 97 293 l-13 45 -7 -45 c-3 -26 -7 -34 -7 -19 -4 69 -33 117 -94
155 -21 14 -38 32 -38 42 1 15 2 15 12 -2 9 -16 13 -12 29 35 20 56 23 88 12
129 -6 22 -7 21 -19 -15 l-12 -40 -1 46 c-1 46 -16 69 -51 81 -9 3 -41 -5 -72
-17z m-408 -394 c0 -5 -9 -11 -20 -14 -20 -5 -26 3 -13 16 9 10 33 8 33 -2z
m-62 -33 c-3 -7 -13 -15 -24 -17 -16 -3 -17 -1 -5 13 16 19 34 21 29 4z"/>
<path d="M5893 12665 c0 -7 6 -11 14 -8 7 3 13 6 13 8 0 2 -6 5 -13 8 -8 3
-14 -1 -14 -8z"/>
<path d="M3300 12650 c-6 -11 -8 -20 -6 -20 3 0 10 9 16 20 6 11 8 20 6 20 -3
0 -10 -9 -16 -20z"/>
<path d="M5846 12507 c3 -10 9 -15 12 -12 3 3 0 11 -7 18 -10 9 -11 8 -5 -6z"/>
<path d="M5796 12453 c-6 -14 -5 -15 5 -6 7 7 10 15 7 18 -3 3 -9 -2 -12 -12z"/>
<path d="M5660 12270 c-8 -5 -12 -12 -9 -15 4 -3 12 1 19 10 14 17 11 19 -10
5z"/>
<path d="M5315 12010 c-3 -5 -1 -10 4 -10 6 0 11 5 11 10 0 6 -2 10 -4 10 -3
0 -8 -4 -11 -10z"/>
<path d="M3730 11970 c0 -5 5 -10 11 -10 5 0 7 5 4 10 -3 6 -8 10 -11 10 -2 0
-4 -4 -4 -10z"/>
<path d="M3775 11970 c-4 -6 -5 -10 -3 -11 25 -6 38 -6 38 1 0 12 -29 20 -35
10z"/>
<path d="M3595 11960 c3 -5 11 -10 16 -10 6 0 7 5 4 10 -3 6 -11 10 -16 10 -6
0 -7 -4 -4 -10z"/>
<path d="M2977 11947 c-3 -8 -2 -19 3 -26 5 -9 9 -7 13 8 6 23 -8 39 -16 18z"/>
<path d="M13330 11948 c0 -4 4 -8 9 -8 6 0 12 4 15 8 3 5 -1 9 -9 9 -8 0 -15
-4 -15 -9z"/>
<path d="M13377 11949 c7 -7 15 -10 18 -7 3 3 -2 9 -12 12 -14 6 -15 5 -6 -5z"/>
<path d="M2805 11940 c3 -5 8 -10 11 -10 2 0 4 5 4 10 0 6 -5 10 -11 10 -5 0
-7 -4 -4 -10z"/>
<path d="M2915 11940 c3 -5 8 -10 11 -10 2 0 4 5 4 10 0 6 -5 10 -11 10 -5 0
-7 -4 -4 -10z"/>
<path d="M2720 11921 c0 -5 5 -13 10 -16 6 -3 10 -2 10 4 0 5 -4 13 -10 16 -5
3 -10 2 -10 -4z"/>
<path d="M2890 11920 c-13 -8 -12 -10 3 -10 9 0 17 5 17 10 0 12 -1 12 -20 0z"/>
<path d="M4245 11919 c4 -6 9 -8 12 -5 3 3 15 0 27 -6 19 -10 20 -10 7 5 -15
19 -56 24 -46 6z"/>
<path d="M2786 11911 c-3 -5 1 -11 9 -14 9 -4 12 -1 8 9 -6 16 -10 17 -17 5z"/>
<path d="M13924 11899 c-10 -12 -35 -29 -54 -39 -55 -29 -136 -114 -143 -150
-4 -17 -2 -52 4 -78 6 -26 14 -70 19 -99 5 -28 21 -70 35 -92 23 -34 34 -41
70 -47 79 -11 115 2 186 68 41 38 59 62 51 65 -10 4 -7 12 10 30 20 22 23 33
21 109 -2 73 -6 94 -33 146 -40 82 -56 98 -96 98 -23 0 -38 -7 -54 -27 -23
-29 -79 -67 -87 -59 -3 3 9 13 25 24 17 10 41 30 52 45 25 32 21 36 -6 6z"/>
<path d="M4600 11890 c0 -5 5 -10 11 -10 5 0 7 5 4 10 -3 6 -8 10 -11 10 -2 0
-4 -4 -4 -10z"/>
<path d="M2080 11780 c0 -5 10 -10 23 -10 18 0 19 2 7 10 -19 13 -30 13 -30 0z"/>
<path d="M14141 11734 c0 -11 3 -14 6 -6 3 7 2 16 -1 19 -3 4 -6 -2 -5 -13z"/>
<path d="M1755 11690 c-3 -6 1 -7 9 -4 18 7 21 14 7 14 -6 0 -13 -4 -16 -10z"/>
<path d="M14421 11624 c0 -11 3 -14 6 -6 3 7 2 16 -1 19 -3 4 -6 -2 -5 -13z"/>
<path d="M14443 11595 c-12 -27 -4 -39 20 -29 18 6 30 32 21 45 -10 17 -29 9
-41 -16z"/>
<path d="M14415 11550 c-3 -5 -1 -10 4 -10 6 0 11 5 11 10 0 6 -2 10 -4 10 -3
0 -8 -4 -11 -10z"/>
<path d="M14103 11457 c-11 -16 -59 -47 -75 -47 -18 0 -58 -44 -50 -56 10 -13
55 -37 47 -25 -3 6 -1 11 4 11 6 0 11 7 11 15 0 9 7 18 15 21 8 4 15 10 15 15
0 6 14 23 30 39 17 16 30 32 30 35 0 10 -19 5 -27 -8z"/>
<path d="M1144 11398 c-9 -13 -3 -15 31 -8 l30 6 -28 6 c-15 3 -30 1 -33 -4z"/>
<path d="M14179 11284 c-7 -9 -40 -34 -72 -56 -65 -44 -70 -60 -10 -30 31 16
115 102 100 102 -3 0 -11 -7 -18 -16z"/>
<path d="M14050 11259 c0 -5 5 -7 10 -4 6 3 10 8 10 11 0 2 -4 4 -10 4 -5 0
-10 -5 -10 -11z"/>
<path d="M14430 11216 c0 -2 8 -10 18 -17 15 -13 16 -12 3 4 -13 16 -21 21
-21 13z"/>
<path d="M14540 11178 c0 -8 8 -22 18 -31 14 -13 21 -14 30 -5 15 15 16 32 1
23 -5 -4 -19 1 -30 11 -16 14 -19 15 -19 2z"/>
<path d="M14900 11160 c-10 -19 -6 -24 13 -21 4 0 7 -4 7 -10 0 -6 5 -7 13 -2
12 8 17 9 37 12 7 1 6 7 -2 15 -9 10 -15 11 -20 2 -6 -8 -8 -8 -8 0 0 22 -29
24 -40 4z"/>
<path d="M760 11150 c0 -5 4 -10 9 -10 6 0 13 5 16 10 3 6 -1 10 -9 10 -9 0
-16 -4 -16 -10z"/>
<path d="M730 11125 c0 -8 2 -15 4 -15 2 0 6 7 10 15 3 8 1 15 -4 15 -6 0 -10
-7 -10 -15z"/>
<path d="M694 11059 c-3 -5 -4 -9 -2 -10 25 -6 39 -6 43 1 3 4 -4 10 -15 13
-11 3 -23 1 -26 -4z"/>
<path d="M423 10814 c-20 -21 -16 -42 3 -22 9 9 15 21 13 26 -2 6 -9 4 -16 -4z"/>
<path d="M306 10813 c-7 -8 -12 -9 -38 -12 -6 0 -8 -4 -5 -8 4 -3 3 -11 -3
-17 -6 -8 -3 -12 11 -13 12 -1 19 3 16 10 -2 6 6 19 17 29 12 10 18 17 15 18
-3 0 -9 -3 -13 -7z"/>
<path d="M50 10780 c0 -5 -11 -12 -26 -16 -37 -9 -28 -40 11 -36 52 4 55 5 55
13 0 4 9 5 20 2 11 -3 20 0 20 6 0 6 3 10 8 10 32 -5 18 5 -23 16 -61 17 -65
18 -65 5z"/>
<path d="M208 10723 c5 -21 7 -23 10 -9 2 10 0 22 -6 28 -6 6 -7 0 -4 -19z"/>
<path d="M235 10720 c-3 -5 -2 -10 4 -10 5 0 13 5 16 10 3 6 2 10 -4 10 -5 0
-13 -4 -16 -10z"/>
<path d="M230 10599 c0 -5 5 -7 10 -4 6 3 10 8 10 11 0 2 -4 4 -10 4 -5 0 -10
-5 -10 -11z"/>
<path d="M85 10540 c-3 -5 -1 -10 4 -10 6 0 11 5 11 10 0 6 -2 10 -4 10 -3 0
-8 -4 -11 -10z"/>
<path d="M49 10479 c0 -2 -2 -11 -4 -20 -1 -9 3 -16 10 -16 7 0 12 6 11 13 -2
13 -15 31 -17 23z"/>
<path d="M20 10395 c0 -8 4 -15 10 -15 5 0 7 7 4 15 -4 8 -8 15 -10 15 -2 0
-4 -7 -4 -15z"/>
<path d="M226 7575 c-6 -18 2 -45 15 -45 5 0 9 7 9 15 0 8 -4 15 -10 15 -5 0
-7 7 -4 15 4 8 4 15 1 15 -3 0 -7 -7 -11 -15z"/>
<path d="M245 7500 c10 -11 20 -20 23 -20 3 0 -3 9 -13 20 -10 11 -20 20 -23
20 -3 0 3 -9 13 -20z"/>
<path d="M256 7373 c-6 -14 -5 -15 5 -6 7 7 10 15 7 18 -3 3 -9 -2 -12 -12z"/>
<path d="M281 7364 c0 -11 3 -14 6 -6 3 7 2 16 -1 19 -3 4 -6 -2 -5 -13z"/>
<path d="M328 7163 c7 -3 16 -2 19 1 4 3 -2 6 -13 5 -11 0 -14 -3 -6 -6z"/>
<path d="M350 7139 c0 -5 5 -7 10 -4 6 3 10 8 10 11 0 2 -4 4 -10 4 -5 0 -10
-5 -10 -11z"/>
<path d="M371 7006 c-8 -10 -9 -16 -1 -21 5 -3 10 -5 11 -3 4 18 7 38 4 38 -1
0 -8 -6 -14 -14z"/>
<path d="M855 6130 c3 -5 8 -10 11 -10 2 0 4 5 4 10 0 6 -5 10 -11 10 -5 0 -7
-4 -4 -10z"/>
<path d="M1240 5716 c0 -2 8 -10 18 -17 15 -13 16 -12 3 4 -13 16 -21 21 -21
13z"/>
<path d="M1280 5705 c0 -8 4 -16 9 -19 14 -9 40 4 35 18 -6 17 -44 18 -44 1z"/>
<path d="M1975 5250 c3 -5 8 -10 11 -10 2 0 4 5 4 10 0 6 -5 10 -11 10 -5 0
-7 -4 -4 -10z"/>
<path d="M2126 5195 c4 -8 8 -15 10 -15 2 0 4 7 4 15 0 8 -4 15 -10 15 -5 0
-7 -7 -4 -15z"/>
</g>
</svg>
