<?xml version="1.0" standalone="no"?>
<!DOCTYPE svg PUBLIC "-//W3C//DTD SVG 20010904//EN"
 "http://www.w3.org/TR/2001/REC-SVG-20010904/DTD/svg10.dtd">
<svg version="1.0" xmlns="http://www.w3.org/2000/svg"
 width="935.000000pt" height="935.000000pt" viewBox="0 0 935.000000 935.000000"
 preserveAspectRatio="xMidYMid meet">
<metadata>
Created by potrace 1.14, written by Peter Selinger 2001-2017
</metadata>
<g transform="translate(0.000000,935.000000) scale(0.100000,-0.100000)"
fill="#000000" stroke="none">
<path d="M5590 9091 c-244 -23 -568 -157 -788 -325 -91 -70 -276 -268 -341
-366 -81 -120 -149 -257 -194 -390 -55 -162 -57 -169 -77 -383 -43 -448 92
-849 410 -1216 58 -66 70 -85 59 -93 -11 -8 -10 -9 4 -4 13 4 49 -18 124 -78
173 -138 385 -245 598 -301 81 -22 245 -44 326 -45 l66 0 -7 -41 c-4 -23 -14
-45 -21 -50 -16 -10 -69 -11 -120 -3 -31 5 -38 11 -45 38 l-7 31 -4 -27 c-6
-37 -27 -37 -196 6 -312 79 -563 222 -803 461 -137 135 -204 224 -204 271 0
18 -4 36 -10 39 -5 3 -10 -1 -10 -11 0 -12 -5 -10 -21 11 l-22 27 -400 -6
c-220 -4 -404 -9 -408 -11 -7 -5 5 -63 21 -100 16 -37 33 -254 26 -338 -12
-140 -16 -165 -42 -254 -39 -135 -80 -223 -154 -335 -91 -137 -133 -185 -171
-193 -22 -5 -28 -10 -19 -15 28 -18 -145 -151 -290 -225 -186 -94 -362 -129
-615 -124 l-170 4 -5 -284 -5 -285 -119 140 c-65 76 -125 153 -132 171 -8 18
-25 45 -39 60 -66 72 -104 117 -198 236 -56 70 -114 147 -130 169 -15 23 -40
56 -55 73 -32 34 -141 175 -181 234 -14 21 -53 74 -86 116 -33 43 -76 101 -95
131 -36 54 -99 149 -130 194 -39 58 -90 158 -90 178 0 17 8 22 52 27 29 3 113
7 187 8 l135 2 7 -35 c4 -19 10 -60 12 -90 22 -221 181 -515 366 -673 216
-185 461 -278 741 -279 228 -2 453 64 626 183 23 15 44 26 47 23 6 -7 97 32
97 41 0 6 -22 1 -58 -13 -7 -2 29 38 81 89 232 232 348 525 333 844 -6 129
-16 203 -35 250 -7 17 -11 30 -10 30 1 0 -3 17 -10 38 -7 21 -10 44 -7 52 3 9
-1 15 -9 15 -8 0 -15 5 -15 12 0 18 -70 149 -96 181 -13 16 -24 33 -24 39 0 6
-18 32 -41 59 l-41 49 29 11 c17 7 23 13 15 16 -8 3 -19 0 -25 -6 -20 -20 -41
-11 -87 35 -98 98 -297 212 -459 261 -77 24 -106 27 -283 31 -196 4 -198 4
-309 -27 -135 -38 -230 -81 -333 -151 -169 -114 -310 -276 -397 -457 -42 -86
-54 -104 -77 -109 -53 -11 -54 -12 -40 -34 10 -16 10 -22 -4 -36 -25 -26 -50
-11 -46 28 3 33 3 33 -37 30 -37 -3 -77 -22 -46 -22 8 0 11 -10 9 -27 -2 -21
-9 -29 -27 -31 -21 -3 -23 -1 -19 32 5 42 -7 45 -84 22 -76 -24 -89 -33 -82
-61 5 -19 2 -25 -11 -25 -12 0 -15 5 -9 23 6 20 4 20 -25 -7 -21 -21 -38 -52
-52 -100 -12 -39 -30 -92 -42 -118 -11 -25 -17 -54 -14 -63 4 -9 -4 -32 -19
-55 -14 -21 -23 -44 -19 -50 3 -6 -19 -48 -49 -93 -75 -110 -82 -118 -97 -115
-59 13 36 -259 151 -428 17 -25 39 -62 51 -82 11 -20 33 -55 50 -77 16 -22 50
-69 74 -105 25 -36 81 -112 125 -170 45 -58 104 -136 133 -174 29 -38 70 -91
92 -118 46 -58 123 -163 166 -228 16 -24 49 -65 72 -90 24 -25 52 -58 63 -75
10 -16 47 -66 81 -111 l62 -81 -77 26 c-42 15 -81 29 -87 33 -17 10 -59 13
-73 5 -9 -6 -12 -58 -12 -205 l0 -197 -35 55 c-55 86 -73 130 -85 205 -8 50
-18 77 -35 95 -24 25 -53 122 -56 185 l-1 30 -7 -30 -6 -29 -17 26 c-9 14 -18
45 -21 69 -3 33 -4 28 -5 -23 -1 -38 -6 -68 -12 -68 -6 0 -10 -28 -10 -63 0
-35 -4 -67 -9 -72 -32 -34 -33 -766 -1 -810 3 -5 8 -32 9 -60 2 -27 7 -51 12
-53 5 -2 9 -30 9 -63 0 -33 4 -59 10 -59 6 0 10 -24 10 -54 0 -30 5 -58 10
-61 6 -3 10 -24 10 -46 0 -21 5 -39 10 -39 6 0 10 -15 10 -34 0 -19 5 -38 10
-41 6 -3 10 -17 10 -30 0 -13 5 -27 10 -30 6 -3 10 -19 10 -35 0 -16 9 -45 20
-65 11 -20 20 -47 20 -60 0 -14 5 -25 10 -25 6 0 10 -13 10 -30 0 -16 5 -30
10 -30 6 0 10 -10 10 -23 0 -26 21 -77 33 -77 4 0 7 -12 7 -27 0 -16 9 -43 20
-61 11 -17 17 -32 14 -32 -4 0 0 -7 7 -16 7 -9 14 -25 16 -35 2 -11 14 -41 28
-67 14 -26 46 -85 71 -132 25 -47 52 -92 60 -101 8 -8 14 -20 14 -26 0 -6 7
-16 15 -23 9 -7 25 -32 35 -55 10 -23 26 -48 35 -55 8 -7 15 -18 15 -25 0 -6
9 -20 20 -30 11 -10 20 -23 20 -30 0 -6 13 -24 30 -40 16 -16 30 -34 30 -40 0
-6 13 -24 30 -40 16 -16 30 -34 30 -40 0 -6 32 -42 70 -80 39 -38 70 -74 70
-80 0 -13 212 -225 225 -225 6 0 51 -41 100 -90 49 -50 94 -90 99 -90 6 0 31
-19 56 -43 40 -37 41 -38 10 -4 -18 20 -48 62 -64 92 -17 30 -59 103 -92 162
-64 113 -97 183 -158 344 -47 125 -80 174 -190 289 -50 52 -108 115 -128 140
-37 46 -162 291 -219 430 -17 41 -44 98 -60 127 -36 66 -52 133 -39 168 6 17
6 42 -2 75 -16 68 1 153 40 210 16 24 28 49 25 56 -6 16 16 94 26 94 14 0 12
212 -2 240 -11 22 -18 25 -62 22 -45 -3 -53 0 -82 30 -54 55 -84 152 -45 141
24 -6 260 67 290 90 9 7 12 58 12 195 0 184 0 185 20 167 18 -16 20 -33 22
-189 l3 -171 120 -1 120 -2 43 -57 c42 -57 42 -57 41 -144 0 -101 18 -170 61
-229 49 -67 134 -111 220 -113 32 0 40 -7 90 -76 53 -74 87 -117 168 -212 20
-24 41 -50 45 -57 9 -16 -102 33 -161 70 -23 14 -67 37 -98 51 -30 13 -66 33
-80 44 -14 11 -39 23 -56 26 -17 4 -49 20 -71 36 -22 16 -44 29 -49 29 -4 0
-55 23 -113 50 -58 28 -110 50 -115 50 -6 0 -21 6 -33 14 -32 21 -145 58 -156
52 -4 -3 -11 -19 -15 -36 -3 -17 -21 -57 -39 -88 -18 -31 -48 -93 -66 -137
-18 -44 -40 -88 -49 -97 -9 -11 -11 -18 -4 -18 7 0 12 4 12 10 0 14 29 0 40
-19 6 -12 4 -27 -6 -45 -18 -36 -18 -39 7 -55 20 -12 24 -10 43 14 24 30 59
31 64 1 2 -10 -6 -28 -18 -41 l-21 -22 36 -22 c45 -26 52 -26 60 -1 13 41 75
49 75 10 0 -9 -9 -29 -20 -43 l-20 -25 52 -30 53 -29 11 27 c15 35 29 43 60
36 29 -8 31 -25 4 -59 -11 -14 -20 -28 -20 -31 0 -7 121 -69 125 -64 1 2 7 17
12 33 8 26 15 30 44 30 44 0 51 -30 14 -67 l-26 -26 106 -51 c58 -28 108 -51
111 -51 3 0 35 -13 71 -30 35 -16 66 -30 69 -30 2 0 23 -8 47 -19 23 -10 67
-29 97 -41 30 -12 69 -28 85 -35 17 -7 64 -25 105 -40 41 -15 84 -31 95 -35
29 -13 295 -102 330 -111 17 -4 107 -31 200 -59 94 -28 185 -56 203 -61 17 -5
47 -13 65 -18 17 -5 67 -19 110 -32 l78 -22 -34 -36 c-86 -91 -97 -109 -97
-156 0 -23 -18 -86 -41 -147 -7 -17 -16 -25 -25 -21 -17 6 -18 -8 -2 -26 11
-11 10 -13 0 -7 -8 5 -24 -4 -41 -23 -28 -30 -60 -43 -45 -19 5 7 3 8 -5 4 -7
-5 -10 -10 -7 -13 8 -8 -47 -48 -61 -45 -7 2 -13 -6 -13 -18 0 -23 -10 -26
-29 -8 -11 11 -12 9 -6 -9 5 -19 2 -23 -14 -23 -14 0 -19 -5 -15 -14 4 -11 0
-13 -14 -9 -11 2 -23 -1 -27 -7 -6 -9 6 -11 44 -8 29 3 54 2 56 -2 2 -4 -36
-10 -86 -13 -65 -4 -100 -11 -125 -26 -40 -24 -48 -26 -38 -9 4 7 3 8 -5 4 -6
-4 -9 -12 -5 -17 3 -6 -2 -19 -11 -29 -14 -15 -22 -17 -36 -9 -11 5 -19 6 -19
1 0 -4 -10 -8 -21 -9 -12 -1 -28 -11 -36 -22 -8 -12 -24 -21 -35 -21 -11 0
-27 -8 -34 -17 -11 -16 -16 -16 -35 -5 -19 12 -21 12 -16 -1 4 -11 -1 -14 -19
-12 -18 2 -24 -2 -20 -11 7 -18 1 -18 -19 2 -13 13 -16 14 -15 3 6 -37 -1 -61
-14 -56 -8 3 -16 1 -19 -6 -2 -7 -22 -11 -50 -10 -37 1 -45 -2 -40 -13 4 -12
0 -14 -20 -9 -31 8 -70 -3 -61 -16 3 -6 -2 -9 -12 -7 -12 2 -18 -2 -17 -12 2
-12 -6 -15 -35 -13 -20 2 -49 4 -64 4 -16 1 -28 6 -28 10 0 5 -10 7 -22 5 -13
-2 -29 1 -35 6 -23 18 -14 0 12 -27 30 -29 44 -33 24 -7 -7 9 8 -3 34 -27 25
-24 44 -48 41 -53 -3 -4 8 -16 25 -26 17 -9 31 -20 31 -24 0 -17 72 -87 103
-99 17 -7 43 -23 57 -36 33 -31 258 -141 365 -179 28 -9 55 -21 60 -24 6 -4
25 -12 44 -19 41 -13 66 3 76 50 4 16 10 29 13 29 4 0 68 -19 142 -41 74 -22
164 -47 200 -56 76 -18 90 -27 90 -59 0 -12 5 -26 12 -30 7 -4 8 -3 4 4 -4 7
-1 12 8 12 11 0 16 -9 16 -26 l0 -26 398 6 c218 3 465 11 547 16 83 6 200 12
260 15 187 9 445 77 550 145 62 40 165 89 230 109 47 15 61 24 65 42 4 18 26
34 85 64 44 22 100 52 125 66 25 15 68 39 95 54 162 89 375 246 579 425 17 15
40 25 60 25 26 0 31 4 31 25 0 15 9 30 22 38 27 15 43 68 43 140 0 52 16 120
46 192 12 29 12 48 3 115 -7 44 -13 102 -13 128 -1 36 -6 52 -21 63 -19 14
-18 17 32 117 52 103 92 147 132 147 32 0 43 33 32 93 -10 57 -4 73 38 88 18
8 21 13 13 21 -18 18 -14 46 8 53 26 8 60 -11 60 -35 0 -23 23 -25 90 -7 62
17 67 22 62 56 -3 26 0 31 21 36 31 8 45 1 57 -30 l9 -23 58 17 c77 21 86 27
73 51 -13 24 -4 47 22 53 29 8 47 -2 54 -29 7 -29 14 -29 83 -1 53 21 55 23
55 62 1 35 4 40 26 43 17 3 31 -4 45 -21 l20 -25 54 24 c48 22 53 26 47 49
-14 57 37 87 71 41 l18 -24 47 25 c44 24 46 27 45 65 -3 54 22 72 56 40 30
-28 36 -28 77 7 30 25 33 30 21 45 -11 13 -11 22 -3 41 13 28 34 32 52 10 18
-21 31 -19 63 11 21 19 26 29 18 37 -28 28 6 82 37 59 33 -23 43 -24 57 -6 10
13 13 32 9 61 -5 34 -3 44 10 49 9 3 23 1 30 -5 21 -18 31 5 16 35 -12 22 -14
22 -26 6 -11 -14 -13 -14 -14 -2 0 12 -2 13 -9 1 -17 -26 -61 68 -61 131 0 18
10 34 31 51 30 23 31 26 24 81 -6 46 -12 59 -29 66 -24 9 -37 3 -18 -9 7 -4
15 -23 18 -43 13 -75 -44 -136 -263 -281 -291 -193 -548 -304 -943 -407 -134
-35 -148 -36 -166 -12 -12 16 -13 16 -14 -4 0 -14 -8 -24 -22 -28 -35 -9 -66
-7 -70 4 -2 7 -14 6 -35 -2 -18 -7 -34 -10 -37 -7 -3 3 1 27 9 54 7 28 16 67
20 87 3 24 14 42 27 49 29 15 43 -2 39 -50 -2 -38 -1 -40 28 -39 17 1 31 5 31
11 0 39 -183 255 -250 295 -20 11 -47 33 -60 47 -25 27 -58 47 -104 65 -23 8
-23 7 -13 -19 19 -51 -30 -171 -69 -171 -13 0 -14 13 -8 83 7 84 16 107 41
107 10 0 14 7 10 20 -3 13 1 21 14 25 10 3 31 32 46 63 l28 57 3 833 2 832 29
0 c32 0 87 53 59 57 -82 11 -88 14 -88 39 0 14 7 32 15 40 8 9 15 24 15 35 0
11 10 23 22 28 22 8 22 8 -6 35 -16 14 -33 26 -37 26 -5 0 -9 20 -9 45 0 25 2
45 5 45 22 0 60 -31 80 -68 l25 -45 0 -543 0 -544 228 2 227 3 3 379 c1 209 6
382 11 385 14 10 24 51 12 51 -7 0 -11 42 -11 123 1 116 2 121 16 93 26 -47
54 -137 54 -173 0 -18 5 -33 10 -33 7 0 10 -144 10 -413 l0 -412 175 -120 c96
-66 219 -150 272 -187 l98 -68 3 1162 c1 639 0 1163 -2 1165 -4 4 -489 -330
-523 -360 -23 -20 -23 -21 -23 -356 l-1 -336 -23 70 c-12 39 -34 90 -47 115
-23 43 -24 56 -29 270 l-5 225 -75 5 c-49 3 -91 13 -120 27 -44 22 -81 30 -66
16 4 -5 26 -15 49 -25 l42 -16 -82 0 c-65 0 -83 3 -83 14 0 8 -7 14 -15 14 -8
0 -15 -6 -15 -14 0 -10 -14 -16 -42 -18 l-43 -3 -3 -177 -2 -176 -55 26 -55
27 0 333 c0 182 -4 332 -8 332 -5 0 -40 -23 -78 -50 -178 -130 -322 -201 -538
-266 -95 -29 -93 -29 -99 -6 -4 15 -5 15 -6 0 -1 -11 -17 -20 -53 -27 -144
-31 -288 -39 -288 -15 0 7 9 28 20 46 l20 34 127 13 c71 7 150 19 177 27 37
10 53 11 63 3 11 -9 12 -8 7 4 -4 12 5 18 38 27 55 15 193 68 238 93 245 134
435 295 586 497 63 83 174 292 213 400 81 222 116 546 82 755 -62 376 -211
675 -461 925 -223 223 -497 372 -812 441 -100 22 -380 32 -518 20z m-289 -415
c89 -19 141 -47 209 -112 167 -159 170 -416 7 -578 -164 -164 -431 -158 -590
14 -184 198 -121 527 121 639 62 28 127 47 172 50 8 0 45 -6 81 -13z m1173
-11 c32 -8 77 -27 101 -40 61 -36 142 -126 173 -192 24 -52 27 -69 27 -168 -1
-97 -4 -117 -27 -166 -100 -216 -359 -300 -579 -188 -54 27 -120 98 -159 170
-34 63 -35 66 -35 184 0 112 2 124 28 178 87 176 286 270 471 222z m327 -1064
c124 -21 234 -104 293 -221 135 -270 -61 -590 -362 -590 -124 0 -211 39 -299
134 -85 90 -108 150 -108 281 0 93 2 105 33 167 55 113 178 209 292 228 64 11
88 11 151 1z m-944 -34 c34 -34 41 -88 14 -125 -60 -84 -181 -52 -181 48 0 51
12 75 48 95 36 20 90 12 119 -18z m-812 -7 c98 -47 189 -152 219 -253 l14 -47
-44 0 c-24 0 -44 5 -44 10 0 6 -27 10 -60 10 -33 0 -60 4 -60 10 0 6 -27 10
-60 10 -33 0 -60 4 -60 10 0 6 -37 10 -90 10 -53 0 -90 4 -90 10 0 6 -52 10
-136 10 l-135 0 7 23 c10 34 70 111 106 139 97 73 147 88 278 85 88 -2 113 -6
155 -27z m-305 -251 c62 2 379 -46 430 -66 8 -4 19 -5 24 -4 4 1 23 -3 41 -9
31 -10 33 -14 37 -61 6 -101 -59 -232 -151 -302 -153 -117 -312 -123 -466 -19
-84 57 -133 119 -164 210 -20 58 -23 81 -18 144 8 118 8 117 129 111 57 -3
119 -5 138 -4z m-2682 -248 c61 -31 129 -114 149 -180 22 -78 7 -175 -34 -210
-15 -14 -27 -30 -25 -37 1 -7 -10 -22 -24 -33 -32 -25 -48 -16 -49 27 0 23 -5
27 -34 30 -49 5 -81 -5 -79 -26 4 -46 -1 -53 -34 -50 -29 3 -33 7 -36 34 -3
36 -18 43 -72 34 -33 -5 -35 -7 -32 -37 3 -23 -1 -33 -10 -33 -19 0 -58 37
-58 55 0 7 -8 16 -19 20 -23 7 -51 91 -51 155 0 119 86 234 201 269 50 15 160
6 207 -18z m786 5 c42 -17 116 -83 116 -102 0 -8 -10 -19 -22 -24 -21 -8 -20
-9 10 -9 28 -1 35 -6 48 -36 19 -47 17 -150 -5 -203 -26 -65 -62 -105 -127
-139 -112 -58 -188 -53 -261 19 -27 26 -51 42 -63 40 -13 -2 -27 9 -44 35 -93
144 -32 349 126 418 43 19 178 19 222 1z m3137 -188 c58 -29 85 -51 124 -98
60 -73 74 -98 91 -165 21 -76 19 -88 -11 -81 -32 8 -33 -2 -1 -14 22 -8 24
-13 19 -56 -11 -107 -74 -217 -156 -272 -74 -50 -116 -64 -218 -73 -96 -8
-101 -7 -169 20 -85 35 -128 67 -180 132 -58 73 -80 142 -80 250 0 72 5 101
24 149 32 79 106 165 170 197 94 48 117 53 217 50 88 -2 102 -6 170 -39z
m-5018 -305 c8 -14 -12 -53 -27 -53 -20 0 -29 16 -21 40 6 19 39 28 48 13z
m1082 -13 c3 -5 -1 -10 -9 -10 -8 0 -18 5 -21 10 -3 6 1 10 9 10 8 0 18 -4 21
-10z m-1176 -151 c-17 -46 -34 -98 -39 -115 -17 -71 -33 -67 -54 14 -12 47
-12 54 3 65 9 7 32 32 50 57 35 45 62 72 68 67 1 -2 -11 -41 -28 -88z m2229
-99 c63 -28 136 -108 158 -172 44 -134 -24 -283 -157 -343 -54 -24 -71 -27
-134 -23 -110 7 -182 56 -238 162 -29 55 -31 184 -3 236 75 142 234 201 374
140z m-710 -56 c3 -22 -38 -64 -63 -64 -21 0 -65 41 -65 60 0 20 17 25 85 25
33 0 41 -4 43 -21z m-499 -14 c33 -17 81 -130 81 -189 0 -118 -76 -229 -184
-270 -71 -26 -130 -27 -199 -1 -67 25 -118 70 -154 135 -24 43 -28 60 -27 130
0 61 5 89 21 120 36 69 47 74 162 77 57 2 144 4 192 6 50 2 97 -2 108 -8z
m-1059 -144 c0 -7 -6 -21 -14 -32 -11 -14 -18 -16 -26 -8 -9 9 -8 18 5 38 17
25 35 27 35 2z m-29 -95 c-7 -5 -12 -11 -11 -15 0 -4 -11 -21 -25 -39 l-26
-32 16 35 c21 42 46 72 54 65 3 -4 0 -10 -8 -14z m104 -32 c6 -19 -17 -59 -35
-59 -17 0 -19 33 -4 56 20 29 31 30 39 3z m-75 -3 c0 -16 -64 -95 -155 -191
-53 -56 -54 -57 -17 -10 22 28 67 81 101 119 34 38 61 75 61 82 0 8 2 14 5 14
3 0 5 -7 5 -14z m65 -96 c3 -5 1 -10 -4 -10 -6 0 -11 -6 -11 -12 0 -13 -209
-228 -222 -228 -4 0 -4 7 -1 17 5 12 3 14 -7 8 -8 -5 -4 6 9 23 12 18 28 32
36 32 7 0 15 8 17 17 2 10 12 18 22 18 11 0 21 6 24 14 3 9 0 11 -9 6 -8 -5
-11 -4 -6 1 5 5 12 9 16 9 9 0 87 87 84 94 -2 3 1 6 6 6 5 0 13 3 17 8 10 10
22 9 29 -3z m1526 -22 c232 -78 264 -403 52 -516 -53 -28 -70 -32 -137 -32
-126 0 -204 47 -257 155 -72 146 -14 307 137 381 55 26 147 32 205 12z m-1411
-43 c0 -6 -8 -19 -18 -28 -14 -13 -21 -14 -30 -5 -16 16 -15 28 5 50 12 14 19
15 30 7 7 -6 13 -17 13 -24z m-120 -39 c0 -3 -4 -8 -10 -11 -5 -3 -10 -1 -10
4 0 6 5 11 10 11 6 0 10 -2 10 -4z m-70 -69 c0 -1 -26 -27 -57 -57 l-58 -55
55 58 c50 53 60 62 60 54z m120 -62 c-21 -21 -38 -31 -43 -26 -12 12 0 31 16
25 7 -2 22 4 32 16 10 11 21 20 24 20 2 0 -10 -16 -29 -35z m186 10 c12 -47
-35 -75 -56 -34 -9 16 -8 25 6 40 24 26 42 24 50 -6z m-242 -43 c7 -11 -58
-74 -67 -66 -4 4 -7 -1 -7 -11 0 -10 -3 -16 -6 -12 -3 3 -17 -6 -30 -21 -13
-15 -24 -22 -24 -15 0 6 5 15 10 18 6 4 8 15 5 25 -3 10 0 22 6 26 9 5 10 2 5
-11 -7 -18 -6 -18 14 0 11 10 18 25 16 32 -6 15 10 27 19 13 10 -16 23 -12 30
10 7 21 20 26 29 12z m46 -66 c0 -2 -8 -10 -17 -17 -16 -13 -17 -12 -4 4 13
16 21 21 21 13z m196 -8 c5 4 0 -4 -11 -17 -23 -27 -239 -211 -249 -211 -14 0
-4 18 30 58 19 23 30 42 24 42 -9 0 -9 4 0 15 9 11 16 13 24 5 15 -15 24 -12
31 10 3 11 13 20 20 20 8 0 18 7 23 16 5 9 12 15 15 15 4 -1 15 -1 24 -1 15 0
15 1 -1 13 -17 12 -17 14 1 28 16 13 17 13 4 -3 -9 -12 -10 -18 -2 -18 6 0 16
9 23 19 8 13 16 17 24 11 6 -6 15 -6 20 -2z m139 -58 c19 -21 18 -22 -35 -73
-30 -29 -43 -38 -28 -22 l27 30 -20 24 c-18 22 -18 25 -3 42 22 24 36 24 59
-1z m-89 1 c-3 -4 -61 -59 -128 -122 -68 -63 -114 -103 -103 -90 19 23 60 63
175 170 53 49 67 60 56 42z m-296 -116 c-13 -14 -28 -25 -33 -25 -5 0 4 13 19
30 16 16 30 27 33 25 2 -3 -6 -16 -19 -30z m400 -15 c0 -12 -281 -233 -287
-226 -4 4 1 21 11 38 11 17 14 28 7 24 -15 -9 -14 7 1 22 18 18 28 15 21 -5
-6 -16 -4 -16 16 1 16 15 18 21 9 27 -10 7 -10 11 0 21 10 10 14 10 21 -1 11
-16 41 -8 41 12 0 7 14 26 32 43 17 16 28 23 24 17 -4 -7 -2 -13 4 -13 7 0 10
6 7 14 -3 8 4 22 15 33 21 18 21 18 9 -5 -11 -21 -11 -22 8 -10 11 7 18 14 16
17 -3 2 1 11 7 18 10 13 14 12 25 -3 7 -10 13 -21 13 -24z m-11 -113 c-98 -92
-201 -182 -213 -185 -11 -4 33 41 132 131 28 26 52 52 52 56 0 11 52 46 64 43
5 -2 5 5 2 15 -6 15 -5 16 6 5 11 -11 3 -22 -43 -65z m147 48 c16 -25 16 -27
-11 -55 l-28 -30 -13 23 c-27 46 -27 50 -5 69 30 24 37 23 57 -7z m-306 -5 c0
-5 -5 -10 -11 -10 -5 0 -7 5 -4 10 3 6 8 10 11 10 2 0 4 -4 4 -10z m250 -94
c0 -2 -8 -10 -17 -17 -16 -13 -17 -12 -4 4 13 16 21 21 21 13z m-370 -21 c-7
-9 -15 -13 -17 -11 -7 7 7 26 19 26 6 0 6 -6 -2 -15z m400 6 c7 10 11 10 24 0
24 -20 20 -33 -17 -58 -17 -13 -77 -59 -132 -103 -55 -44 -106 -80 -112 -80
-15 0 -17 16 -3 25 20 12 10 26 -10 15 -28 -15 -25 -3 7 31 34 35 66 41 37 7
-17 -21 -16 -20 9 1 20 18 24 27 15 33 -10 6 -5 14 17 32 17 13 32 22 35 19 3
-2 -3 -11 -14 -18 -10 -8 -15 -19 -11 -24 9 -15 24 -4 35 25 5 13 14 24 20 24
6 0 8 -4 5 -10 -3 -5 -4 -10 -1 -10 17 0 13 22 -6 29 -22 9 -22 10 7 12 17 1
34 1 38 0 5 -1 6 3 2 9 -4 6 4 19 17 30 13 10 25 14 27 8 2 -6 7 -5 11 3z
m-70 -21 c0 -5 -5 -10 -11 -10 -5 0 -7 5 -4 10 3 6 8 10 11 10 2 0 4 -4 4 -10z
m258 -72 c15 -26 15 -28 -8 -53 -22 -24 -48 -35 -36 -16 3 4 -3 16 -14 26 -26
23 -25 39 3 58 28 20 35 18 55 -15z m-98 14 c0 -16 -257 -242 -276 -242 -4 0
25 30 66 68 41 37 102 93 135 124 58 56 75 67 75 50z m44 -113 c-4 -7 3 -10
21 -7 19 2 32 -3 41 -17 12 -19 3 -27 -128 -128 -98 -75 -144 -105 -152 -97
-7 7 -6 14 2 22 7 7 12 17 12 22 0 6 -5 5 -12 -2 -7 -7 -18 -12 -26 -12 -9 0
1 15 22 35 38 36 70 49 45 18 -13 -15 -12 -15 9 -2 12 8 18 15 12 17 -15 5
-12 32 3 32 7 0 18 -5 24 -11 12 -12 33 -4 33 12 0 5 -7 9 -15 9 -8 0 -15 5
-15 11 0 6 8 8 19 4 11 -3 24 1 32 12 12 15 12 16 -4 10 -11 -4 -16 -3 -12 3
3 6 16 10 28 10 12 0 31 13 42 28 l20 27 -27 -17 c-41 -27 -47 -21 -8 7 37 27
45 30 34 14z m116 -97 c0 -19 -266 -249 -276 -239 -3 3 14 23 37 44 24 21 66
59 94 84 135 124 145 132 145 111z m95 -18 c17 -26 17 -27 -16 -58 -19 -17
-28 -25 -22 -17 9 11 7 20 -10 43 -22 29 -22 30 -3 44 27 19 31 18 51 -12z
m15 -123 c8 -16 -10 -33 -131 -126 -99 -76 -145 -105 -157 -100 -15 6 -14 9 7
26 13 11 21 22 17 26 -3 3 -14 -1 -24 -10 -10 -10 -22 -14 -25 -10 -11 10 -8
23 4 23 7 0 22 12 35 26 18 18 30 23 45 19 18 -6 20 -4 14 14 -7 23 13 29 31
11 11 -11 28 2 36 25 1 6 8 9 15 9 17 -2 11 19 -7 28 -10 4 -7 7 11 7 14 1 36
12 49 26 25 26 49 35 34 12 -5 -7 -2 -5 6 4 17 19 25 17 40 -10z m-170 -71 c0
-5 -4 -10 -10 -10 -5 0 -10 5 -10 10 0 6 5 10 10 10 6 0 10 -4 10 -10z m220 2
c0 -5 -7 -9 -15 -9 -8 0 -12 4 -9 9 3 4 9 8 15 8 5 0 9 -4 9 -8z m45 -43 c16
-25 12 -60 -8 -70 -15 -8 -18 -8 -12 1 5 8 3 11 -6 8 -8 -3 -14 -10 -14 -15 0
-6 -3 -15 -7 -19 -5 -4 -8 -2 -8 4 0 19 -20 14 -21 -5 0 -10 -3 -13 -5 -6 -8
18 -34 4 -34 -17 0 -11 -4 -22 -10 -25 -5 -3 -10 3 -10 14 0 12 -5 21 -11 21
-7 0 -9 -10 -5 -25 5 -19 2 -27 -11 -32 -9 -4 -19 -1 -21 5 -2 7 -8 10 -12 7
-5 -3 -7 -12 -4 -20 3 -7 -4 -18 -15 -25 -12 -6 -21 -8 -21 -4 0 4 -9 -1 -20
-11 -11 -10 -20 -13 -20 -7 0 6 5 14 11 18 8 5 6 10 -5 16 -11 6 -23 6 -34 -2
-9 -7 3 7 28 30 25 24 59 49 75 56 17 7 62 36 100 63 72 52 89 59 100 40z
m110 -29 c17 -19 17 -21 0 -40 -24 -26 -37 -25 -64 4 l-23 24 29 15 c38 20 37
20 58 -3z m-22 -117 c-15 -7 -46 -24 -68 -38 -22 -14 -69 -41 -105 -62 -36
-20 -78 -45 -93 -56 -28 -19 -50 -16 -30 4 5 5 74 50 153 99 113 70 147 87
157 78 12 -9 9 -14 -14 -25z m3340 -13 l507 0 0 -25 0 -25 -264 0 c-170 0
-275 4 -293 11 -15 6 -54 13 -86 15 -32 1 -67 6 -78 9 -10 4 -19 2 -19 -3 0
-5 -15 -8 -34 -5 -22 2 -40 -2 -50 -13 -9 -8 -16 -12 -16 -7 0 5 -9 9 -19 9
-11 0 -17 -4 -15 -8 3 -4 -8 -7 -23 -6 -15 0 -537 -3 -1160 -7 -1153 -8 -1163
-8 -1163 26 0 4 8 15 17 25 17 16 81 17 1103 11 597 -4 1313 -7 1593 -7z
m1120 -11 c6 -9 7 -24 4 -33 -6 -14 -36 -16 -282 -16 l-275 0 0 35 0 35 271
-2 c237 -3 273 -5 282 -19z m-4387 -52 c-3 -30 -56 -80 -56 -53 0 9 -4 16 -10
16 -5 0 -10 -4 -10 -8 0 -5 -7 -17 -16 -28 -14 -17 -15 -17 -10 -1 3 11 2 16
-4 12 -6 -3 -10 -14 -10 -23 0 -20 -63 -59 -68 -43 -2 6 -8 11 -14 11 -6 0 -8
-6 -5 -14 6 -15 -22 -46 -40 -46 -6 0 -16 -7 -23 -15 -7 -8 -17 -12 -22 -9 -5
3 -2 14 8 25 19 21 6 27 -14 7 -10 -10 -15 -10 -22 2 -11 19 -22 10 149 129
134 93 145 99 157 82 7 -10 12 -30 10 -44z m84 9 c-6 -8 -10 -26 -8 -40 4 -31
-10 -31 -39 0 l-22 24 27 14 c38 20 58 20 42 2z m17 -112 c1 -5 -27 -27 -63
-49 -37 -22 -85 -52 -108 -67 -22 -15 -48 -31 -56 -35 -8 -3 -32 -17 -52 -30
-24 -14 -39 -19 -44 -12 -3 6 -4 12 -3 14 9 8 220 145 224 145 2 0 21 11 41
25 37 25 55 28 61 9z m49 -61 c13 -32 10 -71 -8 -82 -14 -9 -16 -8 -11 6 4 11
3 14 -5 9 -7 -4 -12 -17 -12 -29 -1 -22 -1 -22 -15 -3 -8 11 -15 15 -15 10 0
-6 -7 -19 -15 -30 -15 -19 -15 -19 -8 1 6 18 5 18 -10 6 -9 -7 -17 -20 -17
-27 0 -8 -5 -14 -11 -14 -6 0 -9 7 -5 15 3 9 0 15 -10 15 -11 0 -14 -8 -12
-27 2 -20 -2 -29 -14 -31 -10 -2 -18 2 -19 10 -1 7 -4 2 -8 -11 -4 -15 -24
-34 -49 -48 -41 -23 -58 -18 -27 7 24 20 17 32 -9 15 -27 -18 -48 -3 -27 18
24 24 276 205 287 206 7 1 15 -7 20 -16z m724 -178 l0 -135 -140 0 -140 0 0
135 0 135 140 0 140 0 0 -135z m490 0 l0 -135 -135 0 -135 0 0 135 0 135 135
0 135 0 0 -135z m500 0 l0 -135 -135 0 -135 0 0 135 0 135 135 0 135 0 0 -135z
m490 104 c0 -10 -5 -19 -11 -19 -5 0 -8 -3 -5 -8 7 -11 -21 -45 -33 -38 -5 3
-32 -16 -60 -43 -27 -27 -53 -46 -56 -43 -3 4 -3 -1 1 -11 5 -13 1 -17 -18
-17 -17 0 -29 -8 -36 -25 -6 -14 -18 -25 -27 -25 -13 0 -15 20 -15 123 0 68 2
126 4 128 2 2 61 3 130 1 117 -3 126 -5 126 -23z m1500 -104 l0 -135 -135 0
-135 0 0 135 0 135 135 0 135 0 0 -135z m500 0 l0 -135 -140 0 -140 0 0 135 0
135 140 0 140 0 0 -135z m-4126 10 c-16 -14 -33 -25 -37 -25 -4 0 -45 -24 -90
-53 -121 -78 -158 -100 -162 -95 -4 4 227 161 279 190 41 22 46 14 10 -17z
m72 -40 c-3 -8 0 -14 6 -12 22 4 19 -23 -4 -32 -13 -6 -17 -10 -8 -11 19 -1
-26 -40 -46 -40 -8 0 -14 -10 -14 -22 0 -21 -1 -21 -13 -4 -13 17 -14 17 -20
2 -4 -9 -12 -16 -19 -15 -33 4 -39 -1 -27 -22 13 -26 -5 -54 -20 -30 -5 7 -14
10 -20 7 -6 -4 -9 -12 -5 -17 8 -14 -15 -39 -36 -39 -10 0 -21 -8 -24 -17 -5
-12 -10 -13 -18 -5 -8 8 -5 16 13 31 27 22 20 28 -11 9 -14 -9 -23 -9 -30 -2
-8 8 4 23 42 51 85 65 250 183 255 183 3 0 3 -7 -1 -15z m-106 -155 c0 -5 -4
-10 -10 -10 -5 0 -10 5 -10 10 0 6 5 10 10 10 6 0 10 -4 10 -10z m209 -21
c-13 -10 -35 -24 -49 -31 -14 -7 -47 -28 -75 -46 -70 -47 -175 -105 -181 -100
-4 5 241 170 291 196 30 16 41 2 14 -19z m66 -56 c13 -30 14 -43 3 -49 -7 -4
-6 -9 2 -14 8 -5 7 -9 -5 -13 -11 -5 -14 -3 -9 5 5 8 2 9 -12 4 -10 -5 -24 -9
-31 -9 -7 0 -17 -13 -22 -29 -12 -33 -22 -38 -13 -5 5 21 5 21 -11 5 -9 -9
-17 -23 -17 -32 0 -8 -5 -18 -10 -21 -7 -4 -9 2 -4 18 5 22 3 25 -16 20 -17
-5 -20 -11 -15 -34 4 -18 2 -29 -4 -29 -6 0 -11 5 -11 11 0 6 -6 9 -12 7 -7
-3 -13 -12 -13 -22 0 -9 -19 -28 -42 -42 -41 -24 -60 -20 -28 6 24 20 17 32
-9 15 -17 -12 -26 -13 -31 -5 -4 7 -3 15 1 19 37 33 286 211 295 211 4 0 10
-8 14 -17z m125 -88 c0 -2 -10 -10 -22 -16 -21 -11 -22 -11 -9 4 13 16 31 23
31 12z m1319 -11 c3 -3 -4 -14 -16 -25 -20 -20 -33 -21 -610 -26 l-589 -6 -22
30 c-12 17 -22 34 -22 38 0 8 1252 -4 1259 -11z m2465 10 c19 -7 21 -35 4 -52
-9 -9 -127 -12 -470 -12 l-458 0 -10 26 c-6 14 -10 30 -10 35 0 10 918 13 944
3z m-3801 -60 c3 -3 -22 -21 -56 -39 -34 -18 -93 -54 -132 -79 -38 -25 -73
-46 -79 -46 -5 0 -18 -7 -28 -17 -10 -9 -21 -13 -24 -10 -3 3 40 36 97 73 57
36 124 79 148 95 44 29 62 34 74 23z m57 -73 c8 -15 7 -22 -4 -28 -19 -10 -21
-24 -6 -33 8 -5 7 -9 -5 -13 -10 -5 -14 -3 -9 4 4 7 2 9 -7 5 -8 -3 -22 -9
-31 -12 -10 -3 -20 -15 -24 -27 -6 -19 -7 -19 -16 -2 -8 14 -12 15 -19 4 -4
-8 -13 -15 -19 -15 -5 -1 -15 -2 -21 -3 -7 0 -9 -11 -5 -25 6 -25 -14 -51 -22
-28 -6 19 -23 14 -20 -5 2 -9 -7 -22 -18 -28 -12 -6 -29 -17 -38 -24 -24 -20
-32 -4 -10 21 20 23 20 23 -31 2 -9 -4 -15 -1 -15 7 0 16 279 219 301 219 4 0
13 -9 19 -19z m3240 9 c72 -7 73 -7 20 -9 -72 -2 -103 -10 -92 -25 35 -44 4
-146 -44 -146 -6 0 -15 20 -18 45 -6 37 -3 51 13 74 12 16 21 34 21 40 0 17
-66 24 -117 13 -27 -6 -69 -11 -95 -11 -26 0 -63 -7 -84 -16 -42 -17 -44 -18
-44 -7 0 12 74 34 145 42 77 9 199 9 295 0z m200 -30 l45 -7 -42 -2 c-46 -1
-61 -14 -43 -36 26 -31 -39 -155 -81 -155 -21 0 -27 19 -28 84 0 42 4 53 32
78 31 29 31 30 12 45 -19 14 -17 15 20 7 22 -4 60 -10 85 -14z m-447 -30 c6
-11 3 -31 -13 -67 -33 -78 -70 -84 -70 -11 0 70 55 122 83 78z m557 10 c19 -6
67 -20 105 -30 78 -21 162 -50 215 -74 l35 -16 -42 6 -43 7 0 -53 c0 -57 -23
-115 -52 -133 -15 -10 -17 -20 -12 -62 7 -57 36 -95 72 -95 27 0 78 49 74 71
-1 8 1 48 5 89 8 77 8 77 68 104 6 3 -1 14 -14 25 -32 28 -15 26 34 -4 32 -20
36 -24 18 -25 -19 0 -20 -3 -10 -29 13 -35 -5 -108 -37 -149 -15 -19 -21 -42
-22 -84 -1 -32 3 -61 7 -64 19 -11 7 -25 -48 -53 -57 -28 -141 -51 -187 -51
-22 0 -23 2 -18 81 3 54 1 83 -7 88 -6 4 -160 8 -342 10 l-331 3 -53 41 c-30
23 -54 45 -54 50 -1 4 131 7 292 7 192 0 287 4 277 10 -8 5 -25 10 -36 10 -18
0 -15 6 23 44 l44 44 -2 78 c-2 73 0 79 26 101 15 13 26 25 24 27 -2 2 -17 11
-34 19 -35 19 -25 21 25 7z m-725 -60 c9 -14 -12 -73 -34 -98 -9 -12 -29 -24
-44 -27 -16 -4 -27 -14 -26 -24 0 -10 2 -11 6 -4 7 19 43 -4 43 -27 0 -11 5
-20 10 -20 6 0 10 -5 10 -10 0 -6 -6 -10 -12 -9 -29 3 -39 -3 -58 -33 l-19
-31 -7 28 c-4 15 -2 42 5 60 15 43 14 45 -11 42 -19 -2 -22 2 -20 23 5 30 3
29 29 33 26 4 53 25 53 42 0 18 39 65 55 65 8 0 17 -5 20 -10z m-2955 -40 c0
-5 -5 -10 -11 -10 -5 0 -7 5 -4 10 3 6 8 10 11 10 2 0 4 -4 4 -10z m230 -1 c0
-5 -4 -7 -10 -4 -5 3 -10 2 -10 -3 0 -5 -17 -17 -37 -28 -21 -10 -73 -41 -116
-67 -44 -27 -86 -51 -96 -54 -9 -3 -24 -13 -34 -21 -9 -8 -20 -13 -23 -10 -6
7 210 147 281 182 36 18 45 19 45 5z m55 -88 c-3 -6 -11 -9 -16 -6 -5 4 -9 -1
-9 -10 0 -17 -37 -35 -57 -28 -7 3 -13 -2 -13 -11 0 -10 -6 -13 -15 -10 -9 4
-15 0 -15 -10 0 -10 -9 -16 -25 -16 -25 0 -29 -8 -26 -42 1 -10 -4 -18 -13
-18 -9 0 -16 5 -16 11 0 5 -5 7 -10 4 -6 -4 -8 -10 -5 -14 5 -9 -16 -28 -52
-49 -25 -13 -31 -4 -10 17 10 10 6 11 -17 5 -55 -13 -22 19 110 109 71 48 138
92 149 97 23 9 52 -11 40 -29z m2781 -40 c3 -28 1 -31 -24 -31 -15 0 -37 -3
-49 -6 -33 -9 -28 9 12 52 40 42 55 38 61 -15z m190 22 c3 -16 7 -34 10 -40 4
-15 -57 -17 -91 -4 -19 7 -18 10 12 39 39 39 61 41 69 5z m212 -39 l3 -41 -52
8 c-28 5 -53 10 -55 11 -1 2 9 18 23 36 19 25 32 32 52 30 23 -3 26 -8 29 -44z
m-680 -38 c-12 -46 -12 -46 21 -77 31 -28 33 -33 27 -72 -8 -51 -46 -129 -65
-135 -8 -3 -11 0 -7 7 9 15 -26 15 -41 0 -16 -16 -27 30 -19 79 7 39 35 120
46 137 4 6 10 28 14 50 11 63 17 78 27 68 6 -6 5 -27 -3 -57z m3276 -38 c16
-58 16 -82 -2 -100 -34 -34 -93 99 -61 136 27 30 47 19 63 -36z m-5922 10 c-7
-7 -12 -8 -12 -2 0 6 3 14 7 17 3 4 9 5 12 2 2 -3 -1 -11 -7 -17z m198 -3
c-18 -14 -43 -28 -54 -31 -12 -4 -32 -14 -46 -24 -61 -41 -100 -61 -100 -51 0
6 4 11 9 11 6 0 29 13 53 29 53 36 150 89 162 90 6 1 -5 -10 -24 -24z m62 -50
c-3 -18 -13 -27 -36 -33 -20 -6 -31 -15 -31 -27 0 -10 -8 -19 -19 -21 -10 -1
-22 -7 -25 -12 -3 -5 -15 -11 -26 -14 -13 -2 -20 -11 -19 -26 1 -19 -3 -22
-21 -18 -12 3 -30 -1 -41 -10 -18 -15 -18 -15 0 -10 16 6 17 4 6 -9 -7 -8 -16
-13 -20 -10 -4 3 -13 -2 -20 -10 -7 -8 -18 -15 -24 -15 -6 0 -3 7 7 14 24 19
21 27 -8 20 -14 -3 -25 -3 -25 0 0 3 60 45 133 92 72 47 141 92 152 100 11 7
21 13 21 13 1 1 -1 -10 -4 -24z m706 10 c2 -2 -4 -22 -14 -44 l-19 -40 -240
-1 -240 0 -31 38 c-16 20 -33 42 -36 47 -6 10 571 10 580 0z m4824 -71 c22
-64 17 -94 -16 -94 -31 0 -52 27 -59 73 -5 33 -2 43 19 64 14 14 28 22 31 19
3 -3 14 -31 25 -62z m-5403 34 c12 -19 11 -23 -5 -35 -22 -16 -36 -17 -52 -1
-18 18 -15 34 11 46 30 15 30 15 46 -10z m3922 -22 c9 -19 7 -36 -6 -76 -17
-52 -58 -110 -69 -99 -4 3 -2 44 3 90 7 60 14 86 27 96 25 18 33 16 45 -11z
m-4054 -1 c0 -8 -4 -12 -9 -9 -5 3 -6 10 -3 15 9 13 12 11 12 -6z m-30 -15
c-2 -11 -6 -22 -9 -26 -4 -3 -5 2 -3 13 2 10 4 21 4 26 1 4 3 7 6 7 3 0 4 -9
2 -20z m-827 -10 c0 -5 -5 -10 -11 -10 -5 0 -7 5 -4 10 3 6 8 10 11 10 2 0 4
-4 4 -10z m3400 -38 c17 -15 18 -23 8 -60 -11 -43 -50 -92 -74 -92 -18 0 -18
57 0 101 7 19 16 42 19 52 8 22 23 22 47 -1z m2831 -17 c4 -17 13 -44 20 -62
10 -24 10 -37 1 -57 -10 -24 -14 -25 -39 -14 -40 17 -50 29 -56 69 -4 26 0 46
14 68 24 39 51 38 60 -4z m-6057 -11 c22 -8 21 -44 -1 -44 -28 0 -47 16 -40
34 7 17 16 19 41 10z m4522 -63 c-3 -18 -7 -35 -9 -38 -6 -6 -77 37 -77 47 0
5 15 20 33 34 30 24 33 25 45 8 8 -10 11 -30 8 -51z m338 46 c21 -32 -56 -199
-80 -174 -4 4 -3 28 4 52 7 25 12 58 12 73 0 32 27 75 43 69 6 -2 15 -11 21
-20z m-3924 -47 c0 -25 -33 -43 -48 -28 -18 18 -14 34 11 45 27 13 37 8 37
-17z m2429 6 c19 -20 21 -28 12 -66 -12 -52 -28 -70 -67 -73 -25 -2 -29 2 -32
25 -2 15 4 38 12 50 9 12 16 32 16 43 0 20 17 45 30 45 4 0 16 -11 29 -24z
m-2261 2 c7 -7 12 -16 12 -20 0 -10 -59 -9 -85 2 -19 8 -19 8 5 18 34 14 54
14 68 0z m4780 -18 c2 -14 10 -44 19 -68 19 -51 6 -99 -25 -87 -9 4 -27 10
-38 12 -48 11 -58 95 -18 143 31 36 58 36 62 0z m-4600 -7 c3 -19 -1 -23 -22
-23 -21 0 -26 5 -26 26 0 21 4 25 23 22 14 -2 23 -11 25 -25z m-550 3 c-10 -7
-15 -15 -12 -18 3 -4 -13 -14 -35 -24 -33 -14 -40 -22 -35 -37 5 -15 3 -19
-10 -14 -8 3 -36 -3 -62 -14 -25 -11 -48 -18 -51 -15 -3 3 6 11 21 17 14 7 26
16 26 21 0 4 9 8 20 8 11 0 20 5 20 10 0 6 10 15 23 20 12 5 40 20 62 34 43
27 61 34 33 12z m2960 2 c12 -12 17 -68 7 -68 -3 0 -28 11 -56 26 -42 21 -48
28 -39 40 15 17 71 19 88 2z m230 0 c14 -14 16 -67 4 -86 -14 -22 -76 -26 -92
-7 -16 19 -15 72 2 92 13 16 70 17 86 1z m-2519 -17 c12 -8 13 -14 3 -35 -6
-14 -16 -26 -21 -26 -18 0 -29 25 -20 48 9 24 16 26 38 13z m1659 -22 c2 -15
-4 -32 -14 -40 -14 -12 -19 -10 -35 10 -18 23 -19 25 -2 43 22 25 47 19 51
-13z m1607 -59 c-8 -27 -27 -25 -54 4 l-22 24 28 20 28 21 13 -25 c7 -14 10
-34 7 -44z m-1130 37 c11 -17 13 -37 9 -71 -6 -41 -12 -51 -46 -72 -21 -14
-43 -22 -47 -20 -16 10 -19 60 -6 86 7 14 15 42 19 63 6 31 11 37 31 37 15 0
31 -9 40 -23z m2156 -37 c4 -19 11 -48 16 -65 19 -61 -3 -82 -65 -62 -34 11
-38 16 -46 60 -9 45 -8 49 20 78 38 40 67 36 75 -11z m-4837 15 c-10 -8 -23
-15 -28 -15 -6 0 -1 7 10 15 10 8 23 15 28 15 6 0 1 -7 -10 -15z m631 5 c8
-13 -4 -50 -16 -50 -13 0 -22 27 -15 45 6 17 22 20 31 5z m-1180 -30 c3 -6 -1
-7 -9 -4 -18 7 -21 14 -7 14 6 0 13 -4 16 -10z m655 1 c0 -5 -7 -11 -15 -15
-8 -3 -15 -12 -15 -20 0 -8 -8 -14 -17 -14 -23 2 -94 -31 -111 -52 -8 -8 -11
-9 -7 -2 4 7 0 12 -9 12 -10 0 -16 -9 -16 -21 0 -16 -5 -20 -20 -16 -13 3 -24
-1 -30 -14 -6 -10 -19 -19 -28 -19 -10 0 -24 -6 -31 -12 -10 -11 -11 -9 -5 6
5 13 4 17 -4 12 -7 -4 -12 -4 -12 1 0 10 31 28 179 104 110 57 141 68 141 50z
m2764 -21 c31 -28 34 -35 29 -68 -8 -46 -30 -82 -47 -76 -7 3 -19 -2 -26 -11
-36 -43 -75 9 -50 69 7 17 14 45 17 61 4 24 26 55 40 55 1 0 18 -14 37 -30z
m-566 -11 c2 -14 -4 -31 -12 -39 -13 -10 -20 -9 -42 5 l-26 17 23 24 c28 30
53 27 57 -7z m-2568 17 c0 -2 -7 -7 -16 -10 -8 -3 -12 -2 -9 4 6 10 25 14 25
6z m176 -5 c-6 -10 -66 -33 -66 -26 0 3 15 11 33 19 40 18 39 18 33 7z m263
-5 c9 -10 9 -16 1 -21 -13 -8 -42 14 -34 26 8 13 20 11 33 -5z m494 -27 c3
-12 0 -22 -9 -26 -20 -7 -24 -1 -17 25 7 28 19 28 26 1z m3970 -26 c4 -27 9
-60 13 -75 8 -34 -21 -52 -72 -42 -39 7 -54 31 -54 87 0 37 41 76 81 77 24 0
27 -4 32 -47z m-4803 22 c0 -2 -10 -9 -22 -15 -22 -11 -22 -10 -4 4 21 17 26
19 26 11z m4092 -20 c14 -30 0 -50 -43 -60 -23 -6 -27 -3 -33 22 -6 22 -3 31
14 45 30 25 48 22 62 -7z m-831 -14 c17 -16 29 -33 26 -38 -3 -5 -8 -22 -11
-38 -8 -41 -37 -66 -84 -72 -53 -7 -62 12 -39 78 9 25 17 58 17 73 0 22 4 26
29 26 19 0 42 -11 62 -29z m-2942 -6 c-41 -15 -89 -36 -187 -81 -73 -34 -105
-44 -67 -22 53 32 271 126 279 121 4 -3 -7 -11 -25 -18z m2291 -15 c16 -30
-17 -70 -48 -59 -31 12 -38 36 -17 59 23 26 51 25 65 0z m1972 -25 c3 -22 9
-56 13 -76 7 -33 5 -37 -19 -43 -30 -7 -78 2 -88 18 -18 27 -8 82 22 114 39
44 63 39 72 -13z m-4208 17 c5 -8 -30 -23 -84 -36 -15 -4 -6 4 20 18 50 28 57
30 64 18z m104 -27 c-11 -11 -61 -10 -65 1 -2 6 7 15 19 21 17 8 27 8 37 -3 8
-7 12 -16 9 -19z m2966 7 c10 -20 11 -33 4 -46 -6 -11 -8 -43 -4 -77 4 -41 2
-58 -5 -56 -14 3 -19 -41 -8 -70 14 -38 -29 -65 -75 -47 -10 4 -16 18 -16 38
0 44 13 60 40 51 15 -5 20 -4 16 4 -4 6 -2 11 3 11 22 0 10 18 -15 24 -32 8
-31 22 12 184 6 22 33 13 48 -16z m-2634 9 c0 -17 -91 -121 -106 -121 -16 0
-89 43 -98 58 -8 13 43 22 70 12 16 -6 34 0 75 25 63 39 59 37 59 26z m33 -16
c-7 -21 -13 -19 -13 6 0 11 4 18 10 14 5 -3 7 -12 3 -20z m2739 -28 c10 -3 20
-2 23 3 10 17 51 11 69 -9 14 -16 15 -23 6 -41 -11 -21 -10 -41 6 -104 5 -20
3 -26 -11 -26 -13 0 -16 -5 -11 -22 25 -93 17 -114 -41 -99 -22 6 -29 14 -31
39 -2 24 1 34 15 39 33 12 44 43 15 43 -9 0 -30 11 -45 26 -24 22 -27 32 -26
77 1 29 -2 66 -6 82 -6 26 -6 28 6 14 8 -9 22 -19 31 -22z m774 -17 c1 -19 5
-51 9 -71 7 -35 6 -37 -23 -44 -18 -4 -39 -1 -54 7 -48 27 -49 49 -7 107 22
31 36 41 52 39 17 -2 22 -10 23 -38z m-1575 -1 c9 -18 8 -25 -8 -41 -17 -16
-23 -17 -46 -7 -31 14 -33 25 -10 51 22 24 50 23 64 -3z m1061 -1 c44 16 61
-2 64 -68 1 -28 8 -58 15 -66 8 -10 9 -17 0 -28 -8 -10 -8 -27 0 -66 12 -59 4
-72 -40 -68 -31 4 -46 28 -38 61 5 19 12 24 29 21 13 -2 18 -2 11 2 -7 3 -9
12 -6 20 3 9 -2 14 -15 14 -11 0 -25 7 -32 15 -7 8 -19 15 -26 15 -15 0 -16 5
-18 80 -1 25 -6 53 -10 63 -8 17 -7 18 12 6 17 -11 28 -11 54 -1z m-866 -74
c9 -35 -15 -59 -51 -50 -34 9 -42 32 -20 56 26 29 63 26 71 -6z m1168 -32 c10
-19 11 -33 5 -45 -6 -9 -7 -22 -4 -27 3 -6 -1 -10 -9 -10 -23 0 -19 -14 7 -25
36 -16 34 -51 -4 -71 -31 -15 -33 -15 -46 2 -18 24 -17 73 2 80 15 6 22 44 7
44 -4 0 -13 10 -21 22 -12 19 -11 24 9 40 30 24 37 23 54 -10z m-3556 4 c22
-11 15 -14 -80 -35 -57 -12 -138 -31 -180 -42 -78 -19 -135 -15 -106 8 28 22
184 67 233 66 28 -1 57 3 65 8 21 12 41 10 68 -5z m2586 -12 c18 -7 22 -59 5
-69 -16 -10 -79 4 -79 18 0 19 30 57 45 57 7 0 20 -3 29 -6z m-3711 -74 c11
-10 -18 -56 -39 -64 -19 -7 -54 10 -54 27 0 7 7 23 16 35 12 17 21 21 42 16
15 -4 31 -10 35 -14z m187 -90 c17 -9 18 -14 8 -35 -13 -28 -48 -34 -67 -11
-9 11 -10 20 -1 35 12 23 31 26 60 11z m1087 -30 c13 0 26 -7 30 -16 7 -18
-28 -69 -48 -69 -8 0 -15 -7 -16 -15 -9 -69 -15 -90 -28 -90 -8 0 -15 5 -15
11 0 8 -5 8 -15 -1 -8 -7 -15 -17 -15 -22 0 -13 26 -38 40 -38 6 0 10 -10 8
-22 -2 -18 -10 -23 -33 -23 -16 0 -32 -4 -33 -10 -20 -57 -52 -76 -93 -55 -26
14 -24 25 11 62 17 17 30 41 30 52 0 12 14 34 31 49 29 25 30 29 15 40 -15 11
-16 16 -1 57 17 49 83 115 100 99 5 -5 19 -9 32 -9z m53 -55 c-7 -9 -15 -13
-17 -11 -7 7 7 26 19 26 6 0 6 -6 -2 -15z m-910 -10 c10 -12 9 -20 -4 -40 -19
-29 -17 -29 -51 -13 -27 12 -33 36 -13 56 17 17 53 15 68 -3z m1070 -2 c0 -5
14 -8 30 -9 17 -1 33 -4 36 -7 10 -9 -29 -58 -53 -68 -13 -5 -23 -15 -21 -21
1 -7 -1 -30 -6 -51 -6 -33 -10 -37 -34 -35 -21 2 -28 -2 -30 -19 -3 -17 3 -24
23 -29 19 -5 25 -12 23 -28 -2 -16 -10 -21 -35 -21 -20 0 -33 -5 -33 -13 0
-23 -32 -62 -52 -62 -24 0 -58 17 -58 30 0 4 11 22 25 38 14 17 25 38 25 47 0
10 19 35 42 56 38 35 40 39 20 39 -12 0 -22 3 -22 8 0 26 40 103 65 125 29 26
55 35 55 20z m3154 -49 c14 -38 -22 -129 -81 -201 -25 -31 -115 -93 -135 -93
-9 0 -30 -11 -46 -25 -28 -23 -52 -32 -52 -19 0 3 12 21 26 39 22 30 54 110
54 138 0 19 -32 -18 -56 -65 -14 -28 -35 -53 -49 -58 -17 -6 -22 -14 -18 -29
4 -15 -2 -24 -21 -32 -14 -7 -28 -20 -31 -30 -6 -18 -35 -35 -35 -20 0 10 60
94 73 102 5 4 7 14 4 22 -6 17 33 96 70 142 35 42 83 68 100 53 15 -12 39 3
48 33 4 11 22 23 43 29 20 5 44 14 52 20 22 15 47 12 54 -6z m-3370 -60 c-18
-33 -44 -53 -44 -33 0 6 11 25 25 43 14 18 26 39 26 47 1 8 3 6 6 -5 3 -10 -3
-33 -13 -52z m306 57 c0 -12 -20 -25 -27 -18 -7 7 6 27 18 27 5 0 9 -4 9 -9z
m-949 -21 c43 -23 12 -78 -35 -60 -30 11 -33 26 -9 52 19 21 19 21 44 8z
m1152 -6 c9 -3 17 -9 17 -14 0 -10 -51 -65 -66 -71 -6 -2 -14 -24 -17 -49 l-6
-45 35 37 c40 45 45 30 8 -24 -25 -36 -44 -49 -44 -29 0 15 -52 23 -61 9 -9
-15 26 -52 41 -43 6 3 10 -5 10 -19 0 -26 -28 -41 -61 -34 -8 2 -13 -2 -12 -8
1 -7 -8 -23 -21 -37 -17 -18 -30 -23 -50 -20 -14 3 -29 9 -32 14 -6 10 14 50
33 64 7 6 15 21 18 34 2 14 19 38 37 54 27 25 29 30 15 38 -14 8 -14 13 0 57
9 27 29 59 47 74 31 28 46 29 109 12z m-250 -58 c-6 -30 -62 -98 -63 -75 0 12
58 99 66 99 1 0 -1 -11 -3 -24z m269 2 c-7 -7 -12 -8 -12 -2 0 14 12 26 19 19
2 -3 -1 -11 -7 -17z m168 3 c0 -4 12 -6 27 -3 18 3 30 -1 40 -13 16 -23 17
-45 2 -45 -6 0 -8 8 -5 18 4 9 -4 4 -17 -12 -13 -16 -29 -26 -35 -22 -14 8
-19 -1 -27 -52 -7 -48 -1 -52 25 -19 30 37 35 10 5 -29 -15 -20 -30 -32 -34
-28 -3 5 -13 15 -22 22 -14 10 -20 10 -33 -4 -16 -15 -16 -18 1 -34 10 -9 24
-15 31 -12 10 3 13 -2 10 -19 -2 -20 -9 -24 -37 -25 -29 0 -36 -5 -48 -37 -15
-37 -27 -42 -71 -31 -17 5 -21 11 -16 28 3 11 14 28 25 38 10 9 19 24 19 32 0
9 16 33 37 53 20 21 31 39 25 41 -15 5 -14 37 1 79 15 39 97 102 97 74z
m-1102 -37 c26 -7 28 -17 7 -38 -13 -12 -21 -13 -40 -4 -24 11 -32 28 -18 41
8 8 21 9 51 1z m1342 -12 c0 -5 14 -7 30 -4 23 3 30 0 30 -12 0 -9 5 -16 11
-16 6 0 9 -6 7 -12 -3 -7 -9 -13 -14 -13 -5 0 -26 -8 -46 -18 -32 -15 -38 -23
-38 -50 0 -41 -12 -59 -33 -52 -10 4 -19 -1 -26 -14 -10 -18 -7 -22 19 -36 26
-14 29 -18 19 -36 -8 -16 -17 -19 -38 -14 -24 5 -29 2 -35 -19 -9 -38 -30 -53
-65 -48 -17 2 -31 8 -31 12 0 23 21 60 35 60 8 0 15 3 16 8 3 32 12 48 39 75
18 17 27 33 21 35 -14 5 -13 38 2 79 14 38 97 102 97 75z m2080 -8 c0 -9 -16
-34 -35 -55 -19 -22 -35 -46 -35 -54 0 -32 -24 -66 -54 -73 -23 -6 -31 -14
-31 -31 0 -12 -8 -27 -18 -32 -9 -6 -17 -18 -17 -27 0 -21 -19 -42 -37 -42
-19 0 -16 26 5 46 35 35 62 78 62 99 0 35 29 87 78 138 47 47 82 61 82 31z
m-1815 -40 c19 1 29 -4 28 -11 -2 -7 2 -13 8 -13 13 0 6 -25 -7 -26 -5 -1 -24
-7 -41 -13 -24 -10 -33 -19 -33 -36 0 -35 -18 -76 -32 -74 -40 5 -50 -11 -23
-37 8 -9 15 -12 15 -8 0 5 5 3 12 -4 19 -19 -9 -43 -47 -39 -25 3 -32 1 -28
-10 3 -7 -2 -25 -12 -39 -13 -20 -23 -24 -47 -22 -43 4 -46 23 -9 57 17 16 31
36 31 44 0 8 14 29 31 47 24 25 28 34 18 40 -22 14 10 102 43 117 14 7 31 20
38 28 7 9 16 12 19 7 3 -5 20 -8 36 -8z m1653 10 c32 -9 27 -28 -16 -56 -38
-26 -56 -53 -66 -100 -5 -20 -13 -27 -34 -30 -22 -2 -27 -8 -27 -30 1 -16 -3
-28 -7 -28 -4 0 -19 -18 -33 -40 -16 -25 -33 -40 -45 -40 -29 0 -25 12 25 73
25 31 45 64 45 75 0 36 29 89 74 136 48 49 49 49 84 40z m-1425 -39 c20 5 28
2 37 -15 11 -20 7 -35 -8 -35 -4 0 -22 -7 -40 -15 -24 -11 -34 -23 -38 -48 -8
-44 1 -50 31 -22 34 32 32 12 -4 -30 -26 -32 -29 -33 -45 -18 -9 10 -23 15
-31 12 -17 -7 -20 -30 -5 -39 6 -4 8 -11 5 -16 -3 -5 1 -6 10 -2 13 4 16 1 13
-13 -3 -15 -11 -18 -41 -16 -30 2 -36 0 -31 -13 4 -8 -1 -27 -11 -41 -13 -20
-23 -24 -47 -22 -43 4 -46 23 -9 57 17 16 31 35 31 43 0 8 11 25 26 38 18 18
23 31 19 48 -7 29 29 112 49 112 9 0 23 12 32 26 11 16 20 21 24 14 4 -7 18
-8 33 -5z m1280 -2 c16 -9 5 -23 -30 -42 -55 -28 -83 -61 -80 -96 2 -25 -2
-30 -28 -35 -32 -6 -47 -37 -24 -51 10 -6 8 -10 -8 -16 -12 -4 -32 -23 -45
-42 -27 -40 -45 -49 -54 -26 -4 9 2 25 15 39 11 12 21 27 21 32 0 6 11 21 25
34 14 13 25 33 25 45 0 36 37 100 80 138 33 31 45 36 68 31 15 -4 30 -9 35
-11z m-190 -20 c27 -8 16 -24 -32 -50 -55 -29 -71 -50 -68 -88 2 -26 -2 -30
-26 -33 -22 -3 -29 -10 -34 -32 -3 -16 -14 -37 -24 -46 -11 -9 -19 -23 -19
-30 0 -19 -29 -44 -51 -44 -27 0 -24 26 6 54 14 13 25 27 25 31 0 4 9 18 20
32 11 14 20 36 20 50 0 27 19 59 68 118 36 43 59 57 82 48 8 -3 23 -8 33 -10z
m-830 -2 c5 -1 5 -5 2 -11 -3 -5 -1 -10 4 -10 17 0 13 -17 -5 -24 -10 -4 -13
-2 -7 7 4 6 -12 -3 -35 -21 -33 -27 -42 -40 -42 -65 l0 -30 27 24 27 24 -22
-35 c-19 -31 -26 -35 -56 -32 -37 4 -50 -7 -40 -33 4 -10 14 -15 25 -12 11 3
19 0 19 -8 0 -18 -26 -37 -46 -33 -10 2 -23 -6 -29 -18 -19 -38 -37 -54 -61
-54 -12 0 -25 4 -29 9 -8 14 16 61 32 61 7 0 13 9 13 20 0 11 13 32 30 46 21
19 28 33 25 48 -8 35 20 100 49 114 15 8 29 19 32 26 4 11 38 13 87 7z m227
-26 c7 -9 6 -16 -5 -25 -12 -10 -15 -10 -15 1 0 24 -68 -53 -72 -82 -5 -35 -2
-36 23 -6 24 29 24 9 -1 -23 -13 -18 -29 -25 -52 -25 -26 0 -33 -4 -33 -20 0
-13 6 -20 18 -19 9 1 17 -4 17 -11 0 -21 -27 -36 -53 -30 -22 6 -25 4 -20 -13
3 -13 -3 -28 -16 -41 -24 -24 -71 -28 -71 -7 0 8 11 28 25 44 14 17 25 35 25
40 0 6 15 25 33 42 24 22 29 32 19 38 -19 13 17 85 63 125 30 26 44 32 71 29
18 -2 38 -10 44 -17z m403 12 c20 -11 23 -17 15 -25 -7 -7 -19 -12 -28 -12
-20 0 -67 -44 -75 -71 -5 -14 -2 -25 6 -30 20 -12 -4 -33 -39 -34 -22 0 -28
-5 -30 -27 -2 -14 -10 -32 -18 -38 -8 -7 -14 -19 -14 -27 0 -25 -46 -62 -69
-56 -27 7 -27 18 4 49 14 14 25 27 25 31 0 3 14 21 30 40 17 19 28 39 24 45
-13 21 19 87 59 120 63 51 73 54 110 35z m-1364 -57 c-13 -16 -29 -30 -36 -30
-20 0 -16 9 20 49 37 42 50 27 16 -19z m1159 39 c2 -9 -13 -27 -37 -42 -23
-15 -43 -38 -47 -52 -8 -33 1 -42 22 -24 16 13 16 12 6 -7 -14 -27 -42 -50
-42 -35 0 16 -26 13 -41 -5 -11 -14 -10 -18 5 -30 26 -19 13 -44 -24 -44 -21
0 -30 -5 -30 -17 0 -25 -30 -53 -57 -53 -31 0 -30 25 2 54 14 13 25 28 25 34
0 6 12 23 26 39 15 17 23 35 20 46 -6 25 20 73 64 118 27 28 43 35 70 35 23
-1 36 -6 38 -17z m-924 -68 c-19 -32 -44 -48 -44 -29 0 14 51 70 58 64 2 -3
-4 -18 -14 -35z m1178 -143 c-7 -7 -12 -8 -12 -2 0 14 12 26 19 19 2 -3 -1
-11 -7 -17z m-172 3 c0 -12 -20 -25 -27 -18 -7 7 6 27 18 27 5 0 9 -4 9 -9z
m-2210 -381 c0 -5 -4 -10 -10 -10 -5 0 -10 5 -10 10 0 6 5 10 10 10 6 0 10 -4
10 -10z m-57 -117 c-7 -2 -19 -2 -25 0 -7 3 -2 5 12 5 14 0 19 -2 13 -5z
m-832 -510 c13 -16 12 -17 -3 -4 -10 7 -18 15 -18 17 0 8 8 3 21 -13z m39 -34
c0 -6 -4 -7 -10 -4 -5 3 -10 11 -10 16 0 6 5 7 10 4 6 -3 10 -11 10 -16z m302
-75 c9 -9 -3 -44 -16 -44 -6 0 -17 4 -25 9 -12 8 -12 12 -2 25 14 16 33 21 43
10z"/>
<path d="M2845 6880 c-3 -6 1 -7 9 -4 18 7 21 14 7 14 -6 0 -13 -4 -16 -10z"/>
<path d="M5570 6809 c0 -5 9 -9 20 -9 11 0 20 2 20 4 0 2 -9 6 -20 9 -11 3
-20 1 -20 -4z"/>
<path d="M1145 5280 c-3 -5 -1 -10 4 -10 6 0 11 5 11 10 0 6 -2 10 -4 10 -3 0
-8 -4 -11 -10z"/>
<path d="M1847 4313 c-4 -3 -7 -13 -7 -21 0 -12 3 -12 15 -2 8 7 15 16 15 21
0 11 -14 12 -23 2z"/>
<path d="M6255 3460 c9 -39 -18 -120 -50 -150 -19 -17 -22 -27 -15 -41 6 -10
10 -31 10 -47 0 -35 13 -47 59 -57 29 -6 37 -3 63 26 28 31 31 39 32 114 1 77
3 83 30 107 16 14 26 30 23 35 -9 15 -94 43 -130 43 -27 0 -28 -2 -22 -30z"/>
<path d="M4120 7310 c0 -5 9 -10 19 -10 11 0 23 5 26 10 4 6 -5 10 -19 10 -14
0 -26 -4 -26 -10z"/>
<path d="M3950 7290 c0 -5 -20 -10 -44 -10 -25 0 -48 -5 -51 -10 -8 -12 47 -7
165 14 l75 14 -72 1 c-43 1 -73 -3 -73 -9z"/>
<path d="M3775 7250 c-7 -11 9 -11 45 0 24 8 24 8 -7 9 -17 1 -35 -3 -38 -9z"/>
<path d="M3670 7230 c0 -5 -11 -10 -24 -10 -14 0 -28 -4 -31 -10 -3 -5 -17
-10 -31 -10 -13 0 -24 -5 -24 -11 0 -6 6 -9 14 -6 17 7 144 44 171 50 11 3 -1
5 -27 6 -27 0 -48 -3 -48 -9z"/>
<path d="M3495 7170 c-7 -12 12 -12 40 0 18 8 17 9 -7 9 -15 1 -30 -3 -33 -9z"/>
<path d="M3403 7146 c-40 -19 -24 -25 25 -9 26 9 49 17 51 19 10 9 -56 0 -76
-10z"/>
<path d="M3295 7100 c-16 -10 -40 -19 -52 -19 -13 -1 -23 -6 -23 -12 0 -13 14
-10 95 25 41 17 52 25 35 25 -14 0 -38 -9 -55 -19z"/>
<path d="M4660 6290 c-8 -5 -10 -10 -5 -10 6 0 17 5 25 10 8 5 11 10 5 10 -5
0 -17 -5 -25 -10z"/>
<path d="M7460 5401 c0 -12 31 -43 37 -37 7 7 -16 46 -27 46 -6 0 -10 -4 -10
-9z"/>
<path d="M3028 5333 c7 -3 16 -2 19 1 4 3 -2 6 -13 5 -11 0 -14 -3 -6 -6z"/>
<path d="M1989 4903 c-13 -16 -12 -17 4 -4 9 7 17 15 17 17 0 8 -8 3 -21 -13z"/>
<path d="M8120 3736 c0 -8 5 -18 10 -21 26 -16 -8 -154 -38 -156 -13 0 -11 -3
4 -9 12 -5 31 -22 43 -39 17 -24 30 -31 54 -31 39 0 49 7 64 43 16 34 45 35
70 2 10 -15 28 -26 41 -25 12 0 31 0 42 1 11 0 20 6 20 13 0 20 24 36 38 27 7
-4 21 -23 30 -42 12 -24 25 -35 45 -37 19 -2 27 1 27 12 0 8 7 22 16 31 15 15
15 18 -5 39 -24 25 -46 90 -36 106 17 28 51 1 58 -45 4 -36 33 -57 47 -35 17
27 11 75 -13 98 -49 46 -115 65 -239 69 -65 2 -118 1 -118 -1 0 -3 8 -21 17
-41 16 -33 16 -37 -1 -72 l-18 -38 -20 25 c-20 24 -21 68 -3 111 8 20 -19 29
-87 29 -35 0 -48 -4 -48 -14z m334 -38 c26 -36 17 -122 -10 -111 -35 13 -56
97 -32 121 17 17 25 15 42 -10z"/>
<path d="M1930 3576 c0 -2 8 -10 18 -17 15 -13 16 -12 3 4 -13 16 -21 21 -21
13z"/>
<path d="M3125 1120 c-3 -5 -1 -10 4 -10 6 0 11 5 11 10 0 6 -2 10 -4 10 -3 0
-8 -4 -11 -10z"/>
<path d="M3050 1090 c0 -5 7 -10 15 -10 8 0 15 5 15 10 0 6 -7 10 -15 10 -8 0
-15 -4 -15 -10z"/>
</g>
</svg>
